<svg width="25" height="25" viewBox="0 0 25 25" fill="none" xmlns="http://www.w3.org/2000/svg">
<rect x="0.5" y="0.717773" width="23.5644" height="23.5644" rx="3.92739" fill="#FF5940"/>
<path d="M7.38271 14.295H11.2316V14.4193C11.2316 15.2388 11.2376 15.066 11.2376 15.9248C11.2341 16.2028 11.5067 16.4703 11.7782 16.5138C12.101 16.5652 12.4385 16.4031 12.5509 16.1331C12.5821 16.0583 12.5888 15.9731 12.5888 15.8929C12.5907 13.6196 12.59 12.289 12.5904 10.016C12.5904 9.34416 12.5923 8.6721 12.5932 8.0003C12.5932 7.96304 12.5932 7.92605 12.5932 7.8786L12.5698 7.85804V7.83056C12.5698 7.83056 12.5695 7.85635 12.5698 7.76681C12.5739 6.89396 12.5736 6.02111 12.5698 5.14826C12.5695 5.05926 12.6007 5.03809 12.7016 5.03809C14.8712 5.0405 14.1191 5.03969 16.2887 5.03969H16.4218C16.4218 5.08902 16.4218 5.12575 16.4218 5.16274C16.4211 9.00907 16.4211 12.8551 16.4189 16.7015C16.4179 18.3887 15.0758 19.9108 13.1768 20.3465C11.2179 20.7957 9.2279 20.2304 8.04139 18.7088C7.58041 18.1172 7.38653 17.4539 7.37794 16.7529C7.36839 15.9648 7.37571 15.1766 7.37603 14.3885C7.37603 14.3606 7.37985 14.333 7.38271 14.2947V14.295Z" fill="white"/>
<rect x="8.15845" y="5.03809" width="3.63284" height="3.63284" fill="white"/>
</svg>
