<svg width="112" height="21" viewBox="0 0 112 21" fill="none" xmlns="http://www.w3.org/2000/svg">
<path d="M13.428 15.8414C13.428 16.7031 13.2713 17.4371 12.9565 18.0448C12.6432 18.6525 12.2105 19.1481 11.6583 19.533C11.1077 19.9179 10.4563 20.1984 9.70557 20.376C8.95488 20.5521 8.1437 20.6409 7.27048 20.6409C6.16771 20.6409 5.22315 20.5147 4.43368 20.2607C3.64422 20.0067 2.98659 19.6187 2.45769 19.0951C1.9288 18.5715 1.51623 17.9061 1.21688 17.0989C0.919089 16.2917 0.715907 15.3256 0.608887 14.2036L5.43253 13.5117C5.55506 14.4498 5.73188 15.162 5.96143 15.6466C6.19098 16.1312 6.55081 16.3728 7.04093 16.3728C7.39301 16.3728 7.70321 16.2185 7.97154 15.9115C8.23986 15.6045 8.37325 15.1417 8.37325 14.5262V3.68051L6.85946 0.588867H13.428V15.8414Z" fill="black"/>
<path d="M15.4956 5.27234C15.4956 4.41061 15.6802 3.66575 16.0462 3.03464C16.4138 2.40353 16.9225 1.88151 17.574 1.46544C18.2238 1.04938 18.9947 0.742398 19.8819 0.542937C20.769 0.343476 21.7415 0.242188 22.7993 0.242188C23.8571 0.242188 24.828 0.341918 25.7168 0.542937C26.604 0.742398 27.3748 1.05094 28.0247 1.46544C28.6746 1.88151 29.1848 2.40353 29.5524 3.03464C29.92 3.66575 30.103 4.41216 30.103 5.27234V15.7253C30.103 16.5871 29.92 17.3335 29.5524 17.963C29.1848 18.5941 28.6761 19.1162 28.0247 19.5322C27.3733 19.9483 26.604 20.2553 25.7168 20.4547C24.828 20.6542 23.8556 20.7555 22.7993 20.7555C21.7431 20.7555 20.7706 20.6558 19.8819 20.4547C18.9931 20.2553 18.2238 19.9467 17.574 19.5322C16.9225 19.1162 16.4138 18.5941 16.0462 17.963C15.6786 17.3319 15.4956 16.5871 15.4956 15.7253V5.27234ZM20.5488 14.6408C20.5488 15.2563 20.7706 15.7175 21.2142 16.0245C21.6578 16.3331 22.1867 16.4858 22.7993 16.4858C23.412 16.4858 23.9393 16.3315 24.3845 16.0245C24.828 15.7175 25.0498 15.2547 25.0498 14.6408V6.35691C25.0498 5.74138 24.828 5.28013 24.3845 4.97315C23.9409 4.66617 23.412 4.5119 22.7993 4.5119C22.1867 4.5119 21.6578 4.66617 21.2142 4.97315C20.7706 5.28169 20.5488 5.74294 20.5488 6.35691V14.6408Z" fill="black"/>
<path d="M32.1689 5.27234C32.1689 4.41061 32.3535 3.66575 32.7196 3.03464C33.0871 2.40353 33.5959 1.88151 34.2473 1.46544C34.8972 1.04938 35.668 0.742398 36.5552 0.542937C37.4424 0.343476 38.4149 0.242188 39.4727 0.242188C40.5304 0.242188 41.5014 0.341918 42.3901 0.542937C43.2773 0.742398 44.0481 1.05094 44.698 1.46544C45.3479 1.88151 45.8582 2.40353 46.2258 3.03464C46.5934 3.66575 46.7764 4.41216 46.7764 5.27234V15.7253C46.7764 16.5871 46.5934 17.3335 46.2258 17.963C45.8582 18.5941 45.3494 19.1162 44.698 19.5322C44.0466 19.9483 43.2773 20.2553 42.3901 20.4547C41.5014 20.6542 40.5289 20.7555 39.4727 20.7555C38.4164 20.7555 37.4439 20.6558 36.5552 20.4547C35.6665 20.2553 34.8972 19.9467 34.2473 19.5322C33.5959 19.1162 33.0871 18.5941 32.7196 17.963C32.352 17.3319 32.1689 16.5871 32.1689 15.7253V5.27234ZM37.2221 14.6408C37.2221 15.2563 37.4439 15.7175 37.8875 16.0245C38.3311 16.3331 38.86 16.4858 39.4727 16.4858C40.0853 16.4858 40.6127 16.3315 41.0578 16.0245C41.5014 15.7175 41.7232 15.2547 41.7232 14.6408V6.35691C41.7232 5.74138 41.5014 5.28013 41.0578 4.97315C40.6142 4.66617 40.0853 4.5119 39.4727 4.5119C38.86 4.5119 38.3311 4.66617 37.8875 4.97315C37.4439 5.28169 37.2221 5.74294 37.2221 6.35691V14.6408Z" fill="black"/>
<path d="M55.7583 0.588867C56.8145 0.588867 57.787 0.67769 58.6757 0.853776C59.5629 1.03142 60.3338 1.31191 60.9836 1.69681C61.6335 2.08171 62.1438 2.57724 62.5114 3.18497C62.879 3.79271 63.062 4.52666 63.062 5.38839V15.6108C63.062 16.4725 62.879 17.2064 62.5114 17.8142C62.1438 18.4219 61.6351 18.9174 60.9836 19.3023C60.3322 19.6872 59.5629 19.9677 58.6757 20.1454C57.787 20.3215 56.8161 20.4103 55.7583 20.4103H51.3255C50.9889 20.4103 50.7051 20.2872 50.4755 20.041L49.1897 18.679C48.9602 18.4328 48.8454 18.1477 48.8454 17.8251V3.68051L47.3301 0.588867H55.7598H55.7583ZM53.8986 4.85858V16.1421H55.7583C56.4469 16.1421 57.041 15.9879 57.5388 15.6809C58.0367 15.3739 58.2849 14.9111 58.2849 14.2971V6.70515C58.2849 6.08962 58.0352 5.62837 57.5388 5.32139C57.041 5.0144 56.4485 4.86013 55.7583 4.86013H53.8986V4.85858Z" fill="black"/>
<path d="M71.6964 5.73433L70.2261 12.3103H72.3851L73.7639 16.58H69.2629L68.4129 20.4103H63.2915L67.8623 3.5652L66.4152 0.588867H74.7069L80.1045 20.4103H74.983L71.698 5.73433H71.6964Z" fill="black"/>
<path d="M85.3856 9.8186V20.4103H80.562V3.68051L79.0466 0.588867H85.3856L90.2325 11.1805V0.588867H95.0562V20.4103H90.2325L85.3856 9.8186Z" fill="black"/>
<path d="M111.5 9.31142V15.7269C111.5 16.5886 111.317 17.335 110.949 17.9646C110.582 18.5957 110.073 19.1177 109.422 19.5338C108.77 19.9498 108.001 20.2568 107.114 20.4563C106.225 20.6558 105.253 20.757 104.196 20.757C103.14 20.757 102.168 20.6573 101.279 20.4563C100.39 20.2568 99.6208 19.9483 98.9709 19.5338C98.3195 19.1177 97.8108 18.5957 97.4432 17.9646C97.0756 17.3335 96.8926 16.5886 96.8926 15.7269V5.27234C96.8926 4.41061 97.0771 3.66575 97.4432 3.03464C97.8108 2.40353 98.3195 1.88151 98.9709 1.46544C99.6208 1.04938 100.392 0.742398 101.279 0.542937C102.166 0.343476 103.138 0.242188 104.196 0.242188C105.36 0.242188 106.363 0.362176 107.205 0.600594C108.047 0.839012 108.752 1.21144 109.318 1.71944C109.884 2.22745 110.329 2.87258 110.65 3.65795C110.971 4.44333 111.193 5.37363 111.315 6.4504L106.469 7.14228C106.299 6.26497 106.054 5.60737 105.733 5.16949C105.412 4.73161 104.899 4.5119 104.195 4.5119C103.582 4.5119 103.053 4.66617 102.61 4.97315C102.166 5.28169 101.944 5.74294 101.944 6.35691V14.6408C101.944 15.2563 102.166 15.7175 102.61 16.0245C103.053 16.3331 103.582 16.4858 104.195 16.4858C104.807 16.4858 105.335 16.3315 105.78 16.0245C106.223 15.7175 106.445 15.2547 106.445 14.6408V13.5796H104.401L103.483 9.30986H111.498L111.5 9.31142Z" fill="black"/>
</svg>
