<svg width="16" height="17" viewBox="0 0 16 17" fill="none" xmlns="http://www.w3.org/2000/svg">
<path d="M8 1.5C6.54184 1.50172 5.14389 2.08174 4.11282 3.11281C3.08174 4.14389 2.50172 5.54184 2.5 7C2.49866 8.19155 2.88786 9.3507 3.608 10.3C3.608 10.3 3.758 10.4975 3.7825 10.526L8 15.5L12.2195 10.5235C12.2415 10.497 12.392 10.3 12.392 10.3L12.3925 10.2985C13.1122 9.34954 13.5012 8.19098 13.5 7C13.4983 5.54184 12.9183 4.14389 11.8872 3.11281C10.8561 2.08174 9.45817 1.50172 8 1.5ZM8 9C7.60444 9 7.21776 8.8827 6.88886 8.66294C6.55997 8.44318 6.30362 8.13082 6.15224 7.76537C6.00087 7.39991 5.96126 6.99778 6.03843 6.60982C6.1156 6.22186 6.30609 5.86549 6.58579 5.58579C6.8655 5.30608 7.22186 5.1156 7.60982 5.03843C7.99779 4.96126 8.39992 5.00087 8.76537 5.15224C9.13082 5.30362 9.44318 5.55996 9.66294 5.88886C9.88271 6.21776 10 6.60444 10 7C9.99934 7.53023 9.78842 8.03855 9.41349 8.41348C9.03856 8.78841 8.53023 8.99934 8 9Z" fill="#FF5940"/>
</svg>
