<svg width="22" height="26" viewBox="0 0 22 26" fill="none" xmlns="http://www.w3.org/2000/svg">
<path d="M7.05512 11.6131C7.07519 11.79 7.14427 11.9598 7.25619 12.1073C7.47625 12.403 7.62551 12.7357 7.69467 13.0849C7.69467 13.3272 8.62857 13.8311 10.1778 13.9678C10.2645 13.976 10.3522 13.9671 10.4345 13.9417C10.5169 13.9162 10.5919 13.8749 10.6542 13.8207C10.7165 13.7665 10.7645 13.7007 10.7948 13.628C10.8251 13.5553 10.8369 13.4776 10.8295 13.4004L9.64605 0.907521C9.63993 0.838449 9.61856 0.771126 9.58317 0.709395C9.54777 0.647664 9.49905 0.592735 9.43977 0.547744C9.38049 0.502752 9.31183 0.46858 9.23769 0.447178C9.16356 0.425776 9.08541 0.417563 9.0077 0.423009L6.64207 0.603893C6.56436 0.609335 6.48862 0.628328 6.41918 0.659789C6.34973 0.69125 6.28793 0.734562 6.23732 0.787252C6.1867 0.839942 6.14826 0.900978 6.12418 0.966875C6.1001 1.03277 6.09086 1.10224 6.09699 1.17131L7.05512 11.6131ZM14.2719 13.0429C14.3404 12.6672 14.4977 12.3087 14.7334 11.991C14.8485 11.8403 14.9175 11.668 14.9345 11.486L15.8805 1.08625C15.8929 0.946928 15.8426 0.80893 15.7406 0.702549C15.6387 0.596167 15.4934 0.530094 15.3367 0.518834L12.971 0.340103C12.8933 0.334505 12.8151 0.342569 12.7409 0.363836C12.6667 0.385104 12.598 0.419156 12.5386 0.46405C12.4792 0.508944 12.4303 0.563798 12.3948 0.62548C12.3592 0.687162 12.3377 0.754463 12.3315 0.823538L11.1492 13.3164C11.1418 13.3935 11.1536 13.4711 11.1839 13.5437C11.2141 13.6163 11.262 13.682 11.3242 13.7363C11.3863 13.7905 11.4612 13.8318 11.5434 13.8573C11.6256 13.8828 11.7131 13.8919 11.7997 13.8838C13.3623 13.8311 14.2247 13.3272 14.2719 13.0429ZM17.1584 10.9401H18.8857C19.0122 10.9406 19.1355 10.9051 19.2377 10.8388C19.3399 10.7726 19.4156 10.6791 19.4538 10.5719L21.6426 4.41969C21.6866 4.28577 21.6704 4.14188 21.5975 4.01835C21.5245 3.89483 21.4004 3.80132 21.2513 3.75753L18.9923 3.12658C18.848 3.07536 18.6872 3.07536 18.5429 3.12658C18.4738 3.15906 18.413 3.20383 18.3643 3.25811C18.3155 3.31238 18.2798 3.375 18.2595 3.44206L15.6443 10.8034C15.6243 10.8508 15.6215 10.9025 15.6363 10.9514C15.6511 11.0002 15.6827 11.0437 15.7267 11.0758C15.7728 11.1014 15.8261 11.1149 15.8805 11.1149C15.9349 11.1149 15.9882 11.1014 16.0344 11.0758C16.3954 10.9654 16.7773 10.9193 17.1584 10.9401ZM2.53703 10.5719C2.57517 10.6789 2.6507 10.7723 2.75265 10.8385C2.8546 10.9047 2.97765 10.9403 3.10391 10.9401H4.80819C5.21397 10.9369 5.61732 11.008 5.9904 11.1501C6.0873 11.205 6.21327 11.205 6.31018 11.1501C6.35975 11.112 6.39367 11.0603 6.40661 11.0032C6.41955 10.9461 6.41076 10.8868 6.38164 10.8346L3.75558 3.47328C3.73509 3.40613 3.69923 3.34345 3.65025 3.28917C3.60127 3.23489 3.54023 3.19017 3.47093 3.15781C3.32668 3.10658 3.1658 3.10658 3.02155 3.15781L0.762504 3.78875C0.616849 3.82835 0.493326 3.91527 0.416552 4.0322C0.339777 4.14914 0.315388 4.28749 0.348246 4.41969L2.53703 10.5719Z" fill="#FF5940"/>
<path d="M21.1932 13.8002C21.2316 13.6486 21.2317 13.4912 21.1934 13.3395C21.1552 13.1878 21.0796 13.0455 20.9721 12.9229C20.8646 12.8003 20.7279 12.7004 20.5718 12.6303C20.4156 12.5603 20.244 12.5219 20.0691 12.5179H17.1584C16.8803 12.514 16.6095 12.597 16.3932 12.7524C16.1769 12.9079 16.0289 13.1259 15.975 13.3685C15.6686 14.8942 13.1479 15.5779 10.9361 15.5779C8.72427 15.5779 6.2036 14.8942 5.89714 13.3696C5.8435 13.1268 5.6956 12.9085 5.47929 12.7528C5.26298 12.5972 4.992 12.514 4.71372 12.5179H1.92171C1.74187 12.514 1.5634 12.5466 1.39986 12.6132C1.23633 12.6798 1.09203 12.7787 0.977936 12.9023C0.863843 13.026 0.78296 13.1711 0.741434 13.3267C0.699908 13.4823 0.698833 13.6442 0.738289 13.8002L3.81495 24.495C3.99664 25.1819 4.68707 25.6665 5.48167 25.6622H16.508C16.8914 25.6629 17.264 25.5493 17.5664 25.3397C17.8687 25.1301 18.0833 24.8365 18.1759 24.5058L21.1932 13.8002Z" fill="#FF5940"/>
</svg>
