<svg width="32" height="32" viewBox="0 0 32 32" fill="none" xmlns="http://www.w3.org/2000/svg">
<path d="M23.7778 6.6665H8.22221C7.80965 6.6665 7.41399 6.83039 7.12227 7.12212C6.83054 7.41384 6.66666 7.8095 6.66666 8.22206V23.7776C6.66666 24.1902 6.83054 24.5858 7.12227 24.8776C7.41399 25.1693 7.80965 25.3332 8.22221 25.3332H18.7893C18.9936 25.3335 19.196 25.2934 19.3847 25.2151C19.5734 25.1369 19.7448 25.022 19.8889 24.8772L24.8774 19.8887C25.0222 19.7446 25.137 19.5732 25.2153 19.3845C25.2935 19.1958 25.3337 18.9934 25.3333 18.7891V8.22206C25.3333 7.8095 25.1694 7.41384 24.8777 7.12212C24.586 6.83039 24.1903 6.6665 23.7778 6.6665ZM12.8889 12.1109H19.1111C19.3174 12.1109 19.5152 12.1929 19.6611 12.3388C19.8069 12.4846 19.8889 12.6824 19.8889 12.8887C19.8889 13.095 19.8069 13.2928 19.6611 13.4387C19.5152 13.5846 19.3174 13.6665 19.1111 13.6665H12.8889C12.6826 13.6665 12.4848 13.5846 12.3389 13.4387C12.193 13.2928 12.1111 13.095 12.1111 12.8887C12.1111 12.6824 12.193 12.4846 12.3389 12.3388C12.4848 12.1929 12.6826 12.1109 12.8889 12.1109ZM16 19.8887H12.8889C12.6826 19.8887 12.4848 19.8068 12.3389 19.6609C12.193 19.5151 12.1111 19.3172 12.1111 19.1109C12.1111 18.9047 12.193 18.7068 12.3389 18.561C12.4848 18.4151 12.6826 18.3332 12.8889 18.3332H16C16.2063 18.3332 16.4041 18.4151 16.55 18.561C16.6958 18.7068 16.7778 18.9047 16.7778 19.1109C16.7778 19.3172 16.6958 19.5151 16.55 19.6609C16.4041 19.8068 16.2063 19.8887 16 19.8887ZM12.8889 16.7776C12.6826 16.7776 12.4848 16.6957 12.3389 16.5498C12.193 16.4039 12.1111 16.2061 12.1111 15.9998C12.1111 15.7936 12.193 15.5957 12.3389 15.4499C12.4848 15.304 12.6826 15.2221 12.8889 15.2221H19.1111C19.3174 15.2221 19.5152 15.304 19.6611 15.4499C19.8069 15.5957 19.8889 15.7936 19.8889 15.9998C19.8889 16.2061 19.8069 16.4039 19.6611 16.5498C19.5152 16.6957 19.3174 16.7776 19.1111 16.7776H12.8889ZM19.1111 23.4558V19.1109H23.4569L19.1111 23.4558Z" fill="black"/>
</svg>
