<svg width="84" height="84" viewBox="0 0 84 84" fill="none" xmlns="http://www.w3.org/2000/svg">
<path d="M78.463 50.4757C77.1612 50.4473 76.1732 50.9991 75.4054 51.8597C73.8694 65.3199 67.5191 78.9141 42.574 78.9141C17.9912 78.9141 10.7657 64.7194 8.81798 51.823C8.05476 50.9835 7.07695 50.4477 5.79398 50.4757C-0.813635 50.6201 -1.0576 39.4515 5.55002 39.3072C8.97269 39.3072 12.9212 30.7173 20.7855 27.5942L17.1589 41.479L16.1458 42.1422H68.1115L67.0984 41.479L63.4718 27.5942C71.3361 30.7173 75.2846 39.3072 78.7073 39.3072C85.3146 39.4514 85.0706 50.6199 78.463 50.4757Z" fill="#2B3B47"/>
<path d="M75.8699 42.1419C75.8699 52.5292 60.7117 60.9499 42.013 60.9499C23.3143 60.9499 8.15625 52.5292 8.15625 42.1419C8.15625 31.7547 23.3145 23.334 42.0132 23.334C60.7119 23.334 75.8699 31.7547 75.8699 42.1419Z" fill="#597B91"/>
<path d="M71.7288 44.5829C71.7288 52.914 58.4246 59.6678 42.0133 59.6678C25.6019 59.6678 12.2976 52.9142 12.2976 44.5829C12.2976 36.2517 25.6018 29.498 42.0131 29.498C58.4244 29.498 71.7288 36.2518 71.7288 44.5829Z" fill="#F9E7C0"/>
<path d="M43.3105 28.5878C44.5728 24.7727 42.0717 25.1493 39.9968 29.1956C39.9703 29.1919 39.9438 29.1886 39.9172 29.1856C41.0937 25.391 38.3388 26.0479 36.2503 30.5837C37.5044 27.1273 35.3803 27.219 33.2387 29.8318C33.6924 27.1471 31.3271 27.9878 29.4405 31.9448C28.5754 31.7934 28.2127 32.3072 28.7319 33.4112C28.5861 33.4655 28.4416 33.5231 28.2985 33.5841C25.5608 31.3854 23.7736 32.0282 25.924 34.9112L25.885 34.9383C22.669 31.7084 20.13 31.9868 22.1995 34.9805C22.1622 34.9918 22.124 35.0046 22.085 35.0187C19.0409 32.1156 16.7245 32.4185 18.6072 35.2293C18.0892 35.2671 17.4766 35.356 16.7508 35.5105C11.4143 36.6462 13.3703 38.9642 18.6557 38.0583C16.2223 41.2562 18.71 41.7126 21.9872 38.5601C22.0115 38.5724 22.0355 38.5842 22.0592 38.5956C19.7136 41.802 22.5325 42.0758 25.9814 38.4648C23.6724 41.3262 25.7111 41.9297 28.5853 40.1543C27.1399 42.8108 30.3969 42.4845 33.8998 38.236C34.9068 38.2232 36.1807 38.0348 37.6445 37.5843C37.6445 37.5843 37.9872 36.9572 37.7838 36.4242C39.4997 36.4788 39.6884 35.3215 37.0939 33.687C41.4264 35.9643 43.9817 34.8773 40.9592 32.6503C40.9909 32.6273 41.0229 32.6029 41.055 32.5769C44.877 34.3334 46.9695 33.2944 44.2757 31.2477C44.7533 31.0436 45.3037 30.7606 45.94 30.3787C50.6179 27.5704 48.0149 26.0136 43.3105 28.5878ZM23.6373 36.723L23.6465 36.7112L23.6872 36.7527L23.6723 36.7671L23.6373 36.723ZM27.4423 36.733C27.4562 36.7143 27.4703 36.6964 27.4843 36.6775L27.4839 36.6752C27.5246 36.7148 27.5646 36.7525 27.6045 36.7901C27.5806 36.8104 27.5566 36.831 27.5326 36.8518C27.5027 36.812 27.4726 36.7724 27.4423 36.733ZM35.3072 32.613C35.3487 32.641 35.39 32.6687 35.4313 32.6959L35.4096 32.7618L35.4106 32.764C35.3593 32.7399 35.3092 32.7172 35.2592 32.6946C35.2752 32.6678 35.2913 32.6406 35.3072 32.613ZM38.9857 31.4388L39.0331 31.469L39.0282 31.4831C39.0106 31.4741 38.9937 31.4659 38.9762 31.4572L38.9857 31.4388ZM34.788 35.8044C34.5347 35.6011 34.232 35.3872 33.8784 35.1644C34.2874 35.3802 34.7061 35.577 35.1333 35.754C35.0228 35.7683 34.9071 35.7854 34.788 35.8044Z" fill="#2ABA34"/>
<path d="M55.1865 32.9282C62.0771 32.9282 62.0771 39.9247 55.1865 39.9247C48.2959 39.9247 48.2959 32.9282 55.1865 32.9282ZM60.3545 48.0817C67.2451 48.0817 67.2451 41.0852 60.3545 41.0852C53.4639 41.0852 53.4639 48.0817 60.3545 48.0817ZM56.8271 54.9149C63.7178 54.9149 63.7178 47.9184 56.8271 47.9184C49.9365 47.9184 49.9365 54.9149 56.8271 54.9149Z" fill="#F9F9F7"/>
<path d="M52.6115 46.1837C52.4829 46.3552 52.2963 46.474 52.0865 46.5178C51.8767 46.5616 51.6581 46.5275 51.4717 46.4217L51.4007 46.3814L51 46.1541C50.8689 46.0864 50.7029 46.0117 50.5183 45.9215C50.3252 45.8434 50.1093 45.7514 49.8672 45.6672C49.6217 45.5891 49.3606 45.4971 49.0725 45.4339C48.7904 45.3529 48.4825 45.3102 48.1708 45.251L47.6902 45.1983C47.529 45.1753 47.3642 45.1722 47.1992 45.168L46.9513 45.1596L46.8271 45.1552L46.7027 45.1614L46.2063 45.1836C46.0416 45.1962 45.8788 45.2246 45.7169 45.2429L45.4751 45.2735L45.2391 45.3261C45.0831 45.3621 44.9276 45.3908 44.7766 45.429L44.3386 45.5684C44.2671 45.5916 44.1955 45.6114 44.1261 45.6359L43.925 45.7225L43.5375 45.8859C43.2924 46.007 43.0701 46.1395 42.8606 46.2477C42.6778 46.3709 42.5218 46.4833 42.3767 46.5769L42.2722 46.6453L42.151 46.7443L41.9374 46.9185L41.532 47.2493C40.8285 47.8232 39.7929 47.7182 39.219 47.0147C38.6451 46.3112 38.7501 45.2756 39.4536 44.7017C39.5048 44.6601 39.5576 44.622 39.612 44.5873L39.6215 44.5816L40.0648 44.3038L40.431 44.0745L40.617 43.9749C40.8741 43.8399 41.1665 43.6839 41.4824 43.5331C41.7943 43.4127 42.127 43.2726 42.4868 43.151L43.0502 42.992L43.3408 42.9119C43.4399 42.8903 43.5413 42.8737 43.6425 42.8545L44.2594 42.7441C44.4689 42.7179 44.682 42.7033 44.8954 42.6834L45.2165 42.6563L45.5397 42.6545C45.7553 42.6562 45.9715 42.6494 46.1861 42.6601L46.8268 42.7119L46.9858 42.7254L47.1428 42.7498L47.4545 42.7994C47.6614 42.8317 47.8659 42.8635 48.0638 42.9157C48.2625 42.9633 48.4587 43.0074 48.6497 43.0573L48.7813 43.0982C48.5911 42.9103 48.3722 42.7354 48.1558 42.5479L47.7667 42.2609C47.6389 42.16 47.498 42.0747 47.3574 41.9879L47.1472 41.856L47.042 41.7899L46.9314 41.7328L46.4909 41.5026C46.3423 41.4308 46.1873 41.3735 46.038 41.3081L45.8135 41.2129L45.5832 41.1399C45.4303 41.0925 45.2813 41.0392 45.1317 40.9965L44.6828 40.8971C44.6095 40.8812 44.5374 40.8623 44.4653 40.8485L44.2477 40.8224L43.8305 40.7691C43.5577 40.7507 43.2988 40.7535 43.0635 40.7419C42.8435 40.7567 42.6522 40.7754 42.4798 40.7836L42.3549 40.7901L42.2004 40.8147L41.9282 40.858L41.4116 40.9402C40.515 41.083 39.6723 40.472 39.5296 39.5754C39.3869 38.6788 39.9978 37.8362 40.8944 37.6934C40.9596 37.6832 41.0244 37.6767 41.0887 37.6741L41.0998 37.6739L41.6225 37.6565L41.898 37.6473L42.0544 37.6421L42.2653 37.6495C42.5556 37.6619 42.8867 37.6739 43.2356 37.7023C43.5659 37.755 43.9239 37.8009 44.2959 37.8765L44.8629 38.0222L45.1545 38.099C45.2511 38.13 45.3469 38.1666 45.4442 38.2009L46.033 38.4155C46.2273 38.498 46.4191 38.5925 46.6135 38.6826L46.9047 38.8206L47.1851 38.9813C47.3706 39.0911 47.561 39.1938 47.7413 39.3109L48.2692 39.6776L48.3998 39.7692L48.5233 39.8691L48.768 40.0686C48.9305 40.2005 49.0915 40.3307 49.2364 40.4753C49.3842 40.6162 49.5318 40.753 49.6718 40.892C49.9382 41.1844 50.2027 41.4575 50.4201 41.7461C50.6511 42.0219 50.8407 42.3062 51.0191 42.5636C51.1923 42.8255 51.3359 43.0768 51.4643 43.2968C51.5815 43.5267 51.6861 43.7232 51.7647 43.8909L51.9934 44.43C52.0262 44.5075 52.0464 44.587 52.0563 44.6666L52.4343 44.9499C52.5269 45.0193 52.6051 45.1062 52.6641 45.2058C52.7232 45.3053 52.7621 45.4155 52.7785 45.5301C52.795 45.6447 52.7887 45.7614 52.76 45.8735C52.7314 45.9857 52.6809 46.091 52.6115 46.1837Z" fill="#FF473E"/>
<path d="M38.3538 56.1922C33.16 54.7619 36.467 43.622 42.224 44.2332C47.981 44.8443 58.171 61.6497 38.3538 56.1922ZM33.7369 45.5929C36.1612 40.3355 23.2042 36.1173 20.1845 40.5785C8.66255 57.6005 31.3127 50.8503 33.7369 45.5929Z" fill="#E2AF8D"/>
<path d="M29.1079 56.8636C23.9142 55.4333 27.2212 44.2935 32.9781 44.9046C38.7351 45.5157 48.9252 62.3211 29.1079 56.8636Z" fill="#D19878"/>
<path d="M38.4632 2.04954L38.745 2.07793C38.9316 2.10877 39.1849 2.09154 39.5657 2.24789C39.7494 2.31516 39.974 2.37537 40.1625 2.50531C40.3586 2.62786 40.5958 2.74008 40.7839 2.93827L41.0956 3.22751C41.2014 3.32923 41.2792 3.45736 41.3758 3.57877C41.58 3.81879 41.708 4.11657 41.857 4.425C42.1 5.05402 42.2768 5.79657 42.191 6.58899C42.1147 7.37337 41.8507 8.21878 41.2883 8.93918C40.7458 9.67123 39.879 10.2207 38.9669 10.4299L38.6227 10.5145C38.5805 10.5309 38.4481 10.5526 38.3651 10.5716L38.0806 10.6303L37.8714 10.6983C37.5968 10.7755 37.2882 10.9281 37.0212 11.0771C36.4848 11.3982 36.0164 11.8362 35.6907 12.3769C35.3686 12.9154 35.1258 13.5155 35.0407 14.1362C34.9496 14.7524 34.9531 15.3732 35.0712 15.9419C35.1896 16.5094 35.3895 17.0298 35.6518 17.4681C35.8965 17.8703 36.202 18.2322 36.5574 18.5409C36.879 18.8241 37.2139 19.0105 37.4934 19.1634C37.7822 19.2951 38.0169 19.4036 38.1856 19.4512L38.4417 19.5417L38.4645 19.5498C38.517 19.5686 38.561 19.6057 38.5885 19.6543C38.6159 19.7029 38.6249 19.7597 38.6139 19.8144C38.6029 19.8691 38.5725 19.918 38.5284 19.9522C38.4843 19.9863 38.4293 20.0035 38.3736 20.0004L38.0793 19.9832C37.8857 19.9753 37.6025 19.9388 37.2434 19.8564C36.8915 19.7565 36.4477 19.6306 35.9954 19.3544C35.5389 19.0915 35.0525 18.7157 34.6356 18.1987C33.7884 17.184 33.2175 15.6169 33.3802 13.9387C33.455 13.1046 33.6914 12.2355 34.1582 11.4543C34.6112 10.6686 35.293 9.98278 36.0897 9.49568C36.5072 9.27174 36.9064 9.08307 37.3828 8.95395L37.7328 8.85863L38.0184 8.8058C38.1246 8.7848 38.1838 8.7784 38.3282 8.74526L38.5449 8.69276C39.1204 8.56332 39.6431 8.31296 39.9991 7.87901C40.3593 7.45868 40.607 6.93713 40.719 6.39753C40.8321 5.85415 40.7794 5.31553 40.6782 4.83483C40.6026 4.60252 40.5414 4.36873 40.4249 4.17628C40.3712 4.07818 40.3348 3.96743 40.2712 3.88212L40.0825 3.63143C39.9742 3.45031 39.8067 3.35072 39.6822 3.2175C39.5553 3.07559 39.4149 3.01439 39.293 2.93072C39.0697 2.75501 38.7802 2.672 38.6153 2.60457L38.3521 2.49989C38.3235 2.48852 38.2975 2.47163 38.2754 2.45019C38.2534 2.42875 38.2358 2.40318 38.2236 2.37493C38.2115 2.34668 38.205 2.31632 38.2046 2.28557C38.2042 2.25482 38.2098 2.22429 38.2212 2.19572C38.2402 2.14842 38.2741 2.10859 38.3178 2.08223C38.3614 2.05587 38.4125 2.04439 38.4632 2.04954ZM24.9318 10.7152C24.8809 10.6354 24.8005 10.579 24.7081 10.5586C24.6157 10.5381 24.519 10.5551 24.4391 10.6059L24.2506 10.726C24.1267 10.8185 23.9497 10.8856 23.7159 11.1022L23.3353 11.4447L22.948 11.8823C22.6932 12.2144 22.4397 12.6188 22.2159 13.0951C22.0197 13.5789 21.8422 14.1285 21.771 14.7342C21.673 15.3389 21.7214 15.9917 21.8307 16.6572C21.9447 17.3264 22.2139 17.9894 22.5727 18.6167C22.7695 18.9203 22.967 19.2297 23.218 19.5007C23.337 19.6416 23.4561 19.7834 23.5967 19.9036L23.9617 20.229C24.1728 20.4249 24.4747 20.6605 24.5628 20.8048C24.7011 20.9456 24.8357 21.1551 24.9718 21.352C25.2071 21.7676 25.4104 22.1953 25.529 22.6438C25.6378 23.0907 25.7231 23.5396 25.7175 23.9737C25.7332 24.4081 25.6871 24.8232 25.6097 25.2053C25.5534 25.3889 25.5295 25.5817 25.4691 25.751C25.4055 25.9182 25.3538 26.0855 25.2896 26.2363L25.0973 26.661C25.0237 26.7841 24.9551 26.8998 24.8957 27.0092C24.782 27.2333 24.6455 27.3737 24.575 27.4951L24.4555 27.6735L24.4245 27.7196C24.3804 27.7853 24.3595 27.8639 24.3651 27.9428C24.3706 28.0218 24.4022 28.0966 24.455 28.1556C24.5078 28.2145 24.5788 28.2542 24.6566 28.2684C24.7345 28.2825 24.8149 28.2703 24.885 28.2338C24.885 28.2338 24.9595 28.1949 25.0991 28.1225C25.2333 28.042 25.4589 27.9494 25.6868 27.7552C25.8063 27.6638 25.9418 27.5622 26.0788 27.4395L26.4914 27.0071C26.7645 26.677 27.0346 26.2675 27.2697 25.7813C27.4703 25.2865 27.6716 24.7251 27.7342 24.1023C27.8269 23.4827 27.7809 22.8115 27.6469 22.1359C27.5084 21.4581 27.2198 20.7878 26.8315 20.1691C26.6203 19.8707 26.4167 19.5713 26.1213 19.2763C25.8235 18.9416 25.6218 18.8146 25.3792 18.597L25.0486 18.3181C24.9469 18.2478 24.8644 18.158 24.7797 18.0701C24.5971 17.9055 24.4563 17.7059 24.3057 17.5142C24.0409 17.1072 23.8181 16.6719 23.6752 16.2149C23.5417 15.7579 23.4585 15.2909 23.4592 14.8418C23.4347 14.39 23.5046 13.9633 23.5863 13.5703C23.6802 13.1799 23.808 12.8281 23.9525 12.5262L24.1702 12.1067L24.3832 11.7855C24.4911 11.5839 24.6759 11.4182 24.7569 11.3086L24.9019 11.1388C24.9515 11.0806 24.9812 11.0081 24.9865 10.9319C24.9919 10.8556 24.9727 10.7797 24.9318 10.7152ZM57.0085 10.7152C56.9576 10.6354 56.8771 10.579 56.7848 10.5586C56.6924 10.5381 56.5956 10.5551 56.5158 10.6059L56.3273 10.726C56.2034 10.8185 56.0264 10.8856 55.7926 11.1022L55.412 11.4447L55.0246 11.8823C54.7698 12.2144 54.5164 12.6188 54.2926 13.0951C54.0964 13.5789 53.9189 14.1285 53.8477 14.7342C53.7497 15.3389 53.7981 15.9917 53.9074 16.6572C54.0214 17.3264 54.2906 17.9894 54.6494 18.6167C54.8461 18.9203 55.0437 19.2297 55.2947 19.5007C55.4136 19.6416 55.5327 19.7834 55.6733 19.9036L56.0384 20.229C56.2495 20.4249 56.5514 20.6605 56.6395 20.8048C56.7778 20.9456 56.9123 21.1551 57.0485 21.352C57.2838 21.7676 57.4871 22.1953 57.6057 22.6438C57.7144 23.0907 57.7998 23.5396 57.7942 23.9737C57.8099 24.4081 57.7638 24.8232 57.6864 25.2053C57.6301 25.3889 57.6062 25.5817 57.5458 25.751C57.4821 25.9182 57.4305 26.0855 57.3663 26.2363L57.174 26.661C57.1004 26.7841 57.0318 26.8998 56.9724 27.0092C56.8587 27.2333 56.7222 27.3737 56.6516 27.4951L56.5322 27.6735L56.5012 27.7196C56.4571 27.7853 56.4362 27.8639 56.4417 27.9428C56.4473 28.0218 56.4789 28.0966 56.5317 28.1556C56.5845 28.2145 56.6555 28.2542 56.7333 28.2684C56.8112 28.2825 56.8916 28.2703 56.9617 28.2338C56.9617 28.2338 57.0362 28.1949 57.1758 28.1225C57.31 28.042 57.5356 27.9494 57.7635 27.7552C57.8829 27.6638 58.0185 27.5622 58.1554 27.4395L58.5681 27.0071C58.8412 26.677 59.1113 26.2675 59.3464 25.7813C59.547 25.2865 59.7483 24.7251 59.8108 24.1023C59.9035 23.4827 59.8576 22.8115 59.7236 22.1359C59.5851 21.4581 59.2965 20.7878 58.9082 20.1691C58.697 19.8707 58.4934 19.5713 58.1979 19.2763C57.9002 18.9416 57.6985 18.8146 57.4559 18.597L57.1253 18.3181C57.0236 18.2478 56.9411 18.158 56.8564 18.0701C56.6738 17.9055 56.533 17.7059 56.3824 17.5142C56.1176 17.1072 55.8948 16.6719 55.7519 16.2149C55.6184 15.7579 55.5352 15.2909 55.5359 14.8418C55.5114 14.39 55.5813 13.9633 55.663 13.5703C55.7568 13.1799 55.8847 12.8281 56.0292 12.5262L56.2469 12.1067L56.4599 11.7855C56.5678 11.5839 56.7525 11.4182 56.8336 11.3086L56.9786 11.1388C57.0282 11.0806 57.0579 11.0081 57.0632 10.9319C57.0686 10.8556 57.0494 10.7797 57.0085 10.7152ZM45.2255 26.9532C45.2736 26.9187 45.3059 26.8666 45.3155 26.8082C45.3251 26.7499 45.3112 26.6901 45.2767 26.642L45.1953 26.5287C45.1487 26.456 45.0483 26.3429 44.9857 26.2118C44.9054 26.0883 44.827 25.9215 44.743 25.7295C44.6726 25.5349 44.6003 25.3167 44.5814 25.0765C44.5419 24.8403 44.568 24.5842 44.6259 24.3317C44.6835 24.0779 44.8009 23.8256 44.9666 23.5918C45.1412 23.3454 45.3537 23.1284 45.5963 22.9486C45.6575 22.8996 45.7197 22.8512 45.7909 22.8108L46.0375 22.6527C46.202 22.5349 46.3369 22.4709 46.5428 22.2643C46.9364 21.9064 47.1634 21.5431 47.3792 21.14C47.5878 20.7436 47.6996 20.3223 47.7785 19.9171C47.8581 19.5104 47.8556 19.1091 47.829 18.7355C47.7985 18.3608 47.7147 18.013 47.6095 17.7029C47.511 17.421 47.3794 17.1517 47.2174 16.9008C47.0681 16.679 46.9211 16.5012 46.7777 16.3732C46.6529 16.2334 46.5129 16.1606 46.4351 16.1008L46.3096 16.0154C46.2688 15.9874 46.2198 15.9739 46.1704 15.977C46.121 15.9802 46.0741 15.9998 46.0372 16.0328C46.0003 16.0657 45.9755 16.1101 45.9668 16.1588C45.9581 16.2076 45.966 16.2578 45.9892 16.3015L46.0083 16.3376L46.0701 16.4549C46.1032 16.5366 46.179 16.6283 46.2311 16.7766C46.2918 16.9174 46.363 17.0836 46.4137 17.2868C46.4691 17.486 46.5214 17.7119 46.5434 17.9641C46.5836 18.2113 46.5769 18.4868 46.5708 18.7711C46.5648 19.0576 46.5086 19.354 46.4494 19.6541C46.3828 19.9535 46.275 20.2493 46.1449 20.53C46.0168 20.7966 45.8224 21.0918 45.6473 21.2539C45.5953 21.3356 45.3952 21.4695 45.2572 21.5846L45.25 21.5902C45.2401 21.5971 45.3248 21.54 45.2869 21.5656L45.2826 21.5687L45.2657 21.5809L45.2322 21.6051L45.1651 21.6539L45.0322 21.7516C44.9422 21.8135 44.8585 21.8867 44.7766 21.9615C44.4421 22.2469 44.153 22.5941 43.9517 22.98C43.7489 23.3616 43.6052 23.7716 43.5808 24.1747C43.5547 24.5737 43.5882 24.9545 43.6976 25.2765C43.7967 25.6022 43.9499 25.8667 44.09 26.0891C44.2472 26.2993 44.3944 26.4722 44.5351 26.6035C44.6705 26.7452 44.7765 26.802 44.849 26.8642L44.9599 26.9488C44.9978 26.9779 45.0441 26.9941 45.092 26.9949C45.1398 26.9957 45.1866 26.9811 45.2255 26.9532Z" fill="#D7F4F7"/>
</svg>
