<svg width="54" height="54" viewBox="0 0 54 54" fill="none" xmlns="http://www.w3.org/2000/svg">
<path d="M14.85 11.4749C14.85 8.3213 17.0802 5.3999 20.25 5.3999C23.4198 5.3999 25.65 8.3213 25.65 11.4749C25.65 14.6285 23.4198 17.5499 20.25 17.5499C17.0802 17.5499 14.85 14.6285 14.85 11.4749ZM8.09995 12.1499C4.93015 12.1499 2.69995 15.0713 2.69995 18.2249C2.69995 21.3785 4.93015 24.2999 8.09995 24.2999C11.2698 24.2999 13.5 21.3785 13.5 18.2249C13.5 15.0713 11.2698 12.1499 8.09995 12.1499ZM40.5 18.2249C40.5 15.0713 42.7302 12.1499 45.9 12.1499C49.0698 12.1499 51.3 15.0713 51.3 18.2249C51.3 21.3785 49.0698 24.2999 45.9 24.2999C42.7302 24.2999 40.5 21.3785 40.5 18.2249ZM28.35 11.4749C28.35 8.3213 30.5802 5.3999 33.75 5.3999C36.9198 5.3999 39.15 8.3213 39.15 11.4749C39.15 14.6285 36.9198 17.5499 33.75 17.5499C30.5802 17.5499 28.35 14.6285 28.35 11.4749ZM10.8 37.7999C10.8 33.5034 12.5067 29.3829 15.5448 26.3448C18.5829 23.3067 22.7034 21.5999 27 21.5999C31.2965 21.5999 35.417 23.3067 38.4551 26.3448C41.4932 29.3829 43.2 33.5034 43.2 37.7999C43.2 40.4621 41.8392 42.533 39.933 43.8884C38.0511 45.2249 35.6103 45.8999 33.2235 45.8999H20.7765C18.3897 45.8999 15.9489 45.2249 14.0697 43.8884C12.1608 42.533 10.8 40.4621 10.8 37.7999Z" fill="#FF5940"/>
</svg>
