<svg width="20" height="20" viewBox="0 0 20 20" fill="none" xmlns="http://www.w3.org/2000/svg">
<path fill-rule="evenodd" clip-rule="evenodd" d="M9.99984 2.5C9.81404 2.49997 9.6304 2.54196 9.46137 2.62313C9.29235 2.70429 9.14189 2.82273 9.02018 2.97041C8.89847 3.1181 8.80837 3.29158 8.75598 3.4791C8.70358 3.66662 8.69012 3.8638 8.7165 4.05727C7.77693 4.34875 6.95227 4.95228 6.3658 5.77765C5.77932 6.60302 5.46254 7.6059 5.4628 8.63636V14.0909H4.81465C4.64275 14.0909 4.47789 14.1627 4.35634 14.2906C4.23479 14.4185 4.1665 14.5919 4.1665 14.7727C4.1665 14.9536 4.23479 15.127 4.35634 15.2548C4.47789 15.3827 4.64275 15.4545 4.81465 15.4545H15.185C15.3569 15.4545 15.5218 15.3827 15.6433 15.2548C15.7649 15.127 15.8332 14.9536 15.8332 14.7727C15.8332 14.5919 15.7649 14.4185 15.6433 14.2906C15.5218 14.1627 15.3569 14.0909 15.185 14.0909H14.5369V8.63636C14.5371 7.6059 14.2204 6.60302 13.6339 5.77765C13.0474 4.95228 12.2227 4.34875 11.2832 4.05727C11.2918 3.99364 11.2961 3.92909 11.2961 3.86364C11.2961 3.50198 11.1596 3.15513 10.9165 2.8994C10.6734 2.64367 10.3436 2.5 9.99984 2.5ZM11.2961 16.8182C11.2961 16.999 11.2278 17.1724 11.1063 17.3003C10.9847 17.4282 10.8199 17.5 10.648 17.5H9.35169C9.17979 17.5 9.01493 17.4282 8.89338 17.3003C8.77183 17.1724 8.70354 16.999 8.70354 16.8182C8.70354 16.6374 8.77183 16.4639 8.89338 16.3361C9.01493 16.2082 9.17979 16.1364 9.35169 16.1364H10.648C10.8199 16.1364 10.9847 16.2082 11.1063 16.3361C11.2278 16.4639 11.2961 16.6374 11.2961 16.8182Z" fill="#FF5940"/>
</svg>
