<svg width="32" height="32" viewBox="0 0 32 32" fill="none" xmlns="http://www.w3.org/2000/svg">
<path d="M10.2212 6.87501C10.89 6.04251 11.055 5.48001 10.9862 5.23251C10.9338 5.04626 10.685 4.95001 10.6825 4.95001C10.4561 4.87562 10.2638 4.72285 10.1401 4.51922C10.0164 4.31559 9.96941 4.07447 10.0077 3.8393C10.046 3.60412 10.167 3.39035 10.3489 3.23648C10.5308 3.08261 10.7617 2.99875 11 3.00001C11.1009 3.00011 11.2011 3.01528 11.2975 3.04501C11.4225 3.08376 12.5363 3.46126 12.8962 4.64001C13.2037 5.64876 12.8275 6.82126 11.7788 8.12626C11.11 8.95876 10.945 9.52126 11.0138 9.76876C11.0662 9.95501 11.31 10.0488 11.3125 10.05C11.5384 10.1243 11.7305 10.2766 11.8543 10.4797C11.978 10.6829 12.0253 10.9234 11.9877 11.1583C11.95 11.3931 11.8299 11.6068 11.6489 11.7611C11.4679 11.9154 11.2378 12.0001 11 12C10.8991 11.9999 10.7989 11.9847 10.7025 11.955C10.5775 11.9163 9.46375 11.5388 9.10375 10.36C8.79625 9.35126 9.1725 8.17876 10.2212 6.87501ZM14.1038 10.3613C14.4637 11.54 15.5775 11.9175 15.7025 11.9563C15.7989 11.9856 15.8992 12.0003 16 12C16.2378 12.0001 16.4679 11.9154 16.6489 11.7611C16.8299 11.6068 16.95 11.3931 16.9877 11.1583C17.0253 10.9234 16.978 10.6829 16.8543 10.4797C16.7305 10.2766 16.5384 10.1243 16.3125 10.05C16.3125 10.05 16.0625 9.95501 16.0138 9.76876C15.945 9.51876 16.11 8.95876 16.7787 8.12626C17.8275 6.82126 18.2037 5.64876 17.8962 4.64001C17.5363 3.46126 16.4238 3.08376 16.2975 3.04501C16.2011 3.01528 16.1009 3.00011 16 3.00001C15.7624 2.99966 15.5324 3.08392 15.3513 3.23769C15.1702 3.39147 15.0497 3.6047 15.0115 3.83921C14.9733 4.07371 15.0199 4.31416 15.1428 4.51747C15.2658 4.72078 15.4571 4.87368 15.6825 4.94876C15.6825 4.94876 15.9325 5.04501 15.9862 5.23126C16.055 5.48126 15.89 6.04126 15.2212 6.87376C14.1725 8.17876 13.7963 9.35126 14.1038 10.36V10.3613ZM19.1038 10.3613C19.4638 11.54 20.5775 11.9175 20.7025 11.9563C20.7989 11.9856 20.8992 12.0003 21 12C21.2378 12.0001 21.4679 11.9154 21.6489 11.7611C21.8299 11.6068 21.95 11.3931 21.9877 11.1583C22.0253 10.9234 21.978 10.6829 21.8543 10.4797C21.7305 10.2766 21.5384 10.1243 21.3125 10.05C21.3125 10.05 21.0625 9.95501 21.0138 9.76876C20.945 9.51876 21.11 8.95876 21.7787 8.12626C22.8275 6.82126 23.2038 5.64876 22.8962 4.64001C22.5362 3.46126 21.4237 3.08376 21.2975 3.04501C21.2011 3.01528 21.1009 3.00011 21 3.00001C20.7624 2.99966 20.5324 3.08392 20.3513 3.23769C20.1702 3.39147 20.0497 3.6047 20.0115 3.83921C19.9733 4.07371 20.0199 4.31416 20.1428 4.51747C20.2658 4.72078 20.4571 4.87368 20.6825 4.94876C20.6825 4.94876 20.9325 5.04501 20.9862 5.23126C21.055 5.48126 20.89 6.04126 20.2213 6.87376C19.1725 8.17876 18.7963 9.35126 19.1038 10.36V10.3613ZM28 14H4C3.73478 14 3.48043 14.1054 3.29289 14.2929C3.10536 14.4804 3 14.7348 3 15C3.00439 17.3782 3.65887 19.7099 4.89264 21.7429C6.12641 23.776 7.89253 25.4331 10 26.535V27C10 27.5304 10.2107 28.0392 10.5858 28.4142C10.9609 28.7893 11.4696 29 12 29H20C20.5304 29 21.0391 28.7893 21.4142 28.4142C21.7893 28.0392 22 27.5304 22 27V26.535C24.1075 25.4331 25.8736 23.776 27.1074 21.7429C28.3411 19.7099 28.9956 17.3782 29 15C29 14.7348 28.8946 14.4804 28.7071 14.2929C28.5196 14.1054 28.2652 14 28 14Z" fill="#FF5940"/>
</svg>
