<svg width="62" height="60" viewBox="0 0 62 60" fill="none" xmlns="http://www.w3.org/2000/svg">
<path d="M17.0159 51.2202C17.7597 51.3077 18.4159 50.8045 18.5253 50.0608L20.3409 36.2577C20.3845 35.9043 20.2874 35.5479 20.0705 35.2655C19.8535 34.9831 19.5343 34.7973 19.1815 34.7483C18.8281 34.7047 18.4717 34.8018 18.1893 35.0188C17.9069 35.2357 17.7212 35.555 17.6722 35.9077L15.8565 49.7108C15.769 50.4545 16.2722 51.1108 17.0159 51.2202ZM42.8065 29.5639C42.9159 30.3077 43.5722 30.8108 44.3159 30.7233C45.0597 30.6358 45.5847 29.9577 45.4753 29.2139L43.6597 15.4108C43.6107 15.0581 43.4249 14.7388 43.1425 14.5219C42.8601 14.305 42.5037 14.2078 42.1503 14.2514C41.4065 14.3608 40.9034 15.017 40.9909 15.7608L42.8065 29.5639Z" fill="#FF5940"/>
<path d="M41.8363 3.11676C42.7398 2.5833 43.7682 2.29821 44.8173 2.29039C45.8665 2.28258 46.899 2.55231 47.8103 3.07225C48.7216 3.59218 49.4792 4.34383 50.0062 5.25098C50.5333 6.15813 50.8112 7.18852 50.8116 8.23769V8.24207L50.8554 8.23769L51.201 10.8627L56.521 10.1627C58.0085 9.98769 59.3429 11.0158 59.5398 12.4814L61.2898 25.7814C61.4866 27.2689 60.4366 28.6033 58.971 28.8002L53.6467 29.5002L54.0054 32.2346C54.2898 34.4221 52.6929 36.4564 50.4398 36.7627L36.2932 38.6221L33.9679 56.2096C33.6835 58.4189 31.6054 59.9721 29.3523 59.6658L10.8679 57.2377C8.61477 56.9314 7.01789 54.8971 7.30227 52.7096L7.65883 49.9949L2.35852 49.2949C0.871018 49.098 -0.157107 47.7418 0.0397685 46.2761L1.78977 32.9761C1.98664 31.4886 3.34289 30.4605 4.80852 30.6574L10.1045 31.3574L10.4523 28.7105L10.5179 28.7214V28.7127C10.5175 27.6616 10.7956 26.6292 11.3238 25.7205C11.852 24.8118 12.6114 24.0592 13.525 23.5393C14.4385 23.0194 15.4734 22.7508 16.5244 22.7608C17.5754 22.7708 18.6051 23.059 19.5085 23.5961C20.2159 22.7319 21.1283 22.0584 22.1626 21.6369C23.1968 21.2155 24.3201 21.0596 25.4301 21.1833L24.1898 11.7377L24.262 11.7289C24.0121 10.7922 23.9947 9.80856 24.2111 8.86349C24.4275 7.91843 24.8712 7.04044 25.5038 6.30571C26.1364 5.57098 26.9387 5.00169 27.8411 4.64725C28.7435 4.29281 29.7188 4.16392 30.6823 4.27176C31.1713 3.31992 31.8821 2.49968 32.7547 1.88024C33.6273 1.26081 34.6361 0.860365 35.696 0.712693C36.8394 0.549463 38.0056 0.684871 39.0812 1.10575C40.1568 1.52664 41.1052 2.21867 41.8341 3.11457M30.6495 24.7708C31.852 24.6336 33.068 24.8623 34.1385 25.4271L33.1366 17.8146C32.5323 17.6208 31.9954 17.2593 31.5888 16.772C31.1821 16.2848 30.9223 15.692 30.8398 15.0627L30.2995 10.9064L27.1648 11.3221L28.6195 22.4083C29.4726 23.0252 30.1638 23.8389 30.6495 24.7708ZM31.0345 31.3814L30.4898 35.5596C30.4072 36.1888 30.1475 36.7817 29.7408 37.2689C29.3341 37.7562 28.7973 38.1177 28.1929 38.3114L26.5085 51.1127C26.3991 51.8564 25.7429 52.3596 24.9991 52.2721C24.6464 52.2231 24.3272 52.0373 24.1102 51.7549C23.8933 51.4725 23.7962 51.1161 23.8398 50.7627L25.511 38.0533C24.9212 37.7232 24.4444 37.2234 24.1424 36.6187C23.8405 36.014 23.7274 35.3325 23.8179 34.6627L24.1023 32.4752C24.1378 32.2177 24.1217 31.9558 24.0548 31.7046C23.9879 31.4534 23.8717 31.2181 23.7128 31.0124C23.5539 30.8067 23.3557 30.6347 23.1296 30.5066C22.9035 30.3784 22.6541 30.2965 22.396 30.2658L18.2398 29.7189L18.2332 29.6927L13.4491 29.0627L10.2773 53.0814C10.1898 53.6939 10.6273 54.2627 11.2398 54.3283L29.746 56.7564C30.3585 56.8658 30.9273 56.4283 31.0148 55.8158L34.1866 31.7971L31.0345 31.3814ZM50.1116 33.8533C50.7241 33.7877 51.1616 33.2189 51.0741 32.6064L47.9023 8.58769L38.9335 9.76894C37.8398 9.90019 37.0741 10.9064 37.2273 11.9783L37.5116 14.1658C37.6021 14.8356 37.4891 15.5171 37.1871 16.1218C36.8852 16.7265 36.4083 17.2263 35.8185 17.5564L37.4898 30.2658C37.5408 30.5979 37.4625 30.9369 37.271 31.213C37.2382 31.548 37.1797 31.8801 37.096 32.2061L37.1398 32.2127L36.6891 35.6143L50.1116 33.8533ZM9.58164 35.3518L6.03352 34.8814C5.92395 34.8683 5.81347 34.8971 5.72423 34.962C5.63498 35.0269 5.57356 35.1232 5.55227 35.2314L4.26164 45.0533C4.24912 45.1661 4.2809 45.2793 4.35028 45.3691C4.41967 45.4589 4.52122 45.5182 4.63352 45.5346L8.18164 46.0049L9.58164 35.3518ZM51.7304 14.8833L53.1282 25.5364L56.6982 25.0618C56.9388 25.018 57.092 24.7993 57.0701 24.5805L55.7795 14.7586C55.7576 14.518 55.5388 14.3649 55.2982 14.4086L51.7304 14.8833Z" fill="#FF5940"/>
<line x1="14.9908" y1="7.78199" x2="19.3365" y2="11.4033" stroke="#FF5940" stroke-width="3.16129" stroke-linecap="round"/>
<line x1="1.58065" y1="-1.58065" x2="7.23738" y2="-1.58065" transform="matrix(-0.794756 -0.606929 -0.606929 0.794756 53.0137 49.4648)" stroke="#FF5940" stroke-width="3.16129" stroke-linecap="round"/>
<line x1="11.5289" y1="15.3654" x2="15.0005" y2="16.2294" stroke="#FF5940" stroke-width="3.16129" stroke-linecap="round"/>
<line x1="1.58065" y1="-1.58065" x2="5.15816" y2="-1.58065" transform="matrix(-0.450901 -0.892574 -0.892574 0.450901 45.3926 54.4326)" stroke="#FF5940" stroke-width="3.16129" stroke-linecap="round"/>
</svg>
