<svg width="33" height="32" viewBox="0 0 33 32" fill="none" xmlns="http://www.w3.org/2000/svg">
<path d="M16.4531 5.22266C16.4727 5.22459 16.4923 5.22582 16.5117 5.22949C16.5359 5.23404 16.5594 5.24082 16.583 5.24805C16.6 5.25327 16.6171 5.25802 16.6338 5.26465C16.6587 5.27451 16.6823 5.28686 16.7061 5.2998C16.7206 5.30778 16.7349 5.31605 16.749 5.3252C16.7704 5.33905 16.7905 5.35455 16.8105 5.37109C16.8218 5.38045 16.8349 5.38822 16.8457 5.39844C16.8501 5.40256 16.8532 5.40789 16.8574 5.41211C16.862 5.41665 16.8676 5.42011 16.8721 5.4248C17.5989 6.19287 18.5001 7.0334 20.6055 8.90527C21.3966 9.60861 22.7576 10.5002 23.8223 11.1875L24.7559 11.792C24.9522 11.9214 25.089 12.118 25.1455 12.3398L25.165 12.4365L27.0547 25.4492H28.333C28.7012 25.4492 29 25.748 29 26.1162C28.9998 26.4843 28.7011 26.7832 28.333 26.7832H4.33301C3.96493 26.7832 3.66619 26.4843 3.66602 26.1162C3.66602 25.748 3.96482 25.4492 4.33301 25.4492H5.7207L7.61035 12.4365L7.62988 12.3398C7.68637 12.118 7.82316 11.9214 8.01953 11.792L8.95312 11.1875C10.0178 10.5002 11.3788 9.60861 12.1699 8.90527C14.2752 7.0334 15.1765 6.19287 15.9033 5.4248C15.9076 5.42028 15.9126 5.41649 15.917 5.41211C15.9214 5.40773 15.9252 5.40272 15.9297 5.39844C15.9403 5.3884 15.9528 5.3803 15.9639 5.37109C15.9838 5.35454 16.004 5.33907 16.0254 5.3252C16.0394 5.31604 16.0538 5.30779 16.0684 5.2998C16.0921 5.28683 16.1158 5.27453 16.1406 5.26465C16.1573 5.258 16.1744 5.25329 16.1914 5.24805C16.215 5.24079 16.2385 5.23408 16.2627 5.22949C16.2821 5.22579 16.3017 5.22462 16.3213 5.22266C16.3435 5.22045 16.3654 5.21777 16.3877 5.21777C16.4096 5.21777 16.4313 5.22051 16.4531 5.22266ZM16.3877 6.83594C15.6835 7.5389 14.7449 8.40029 13.0566 9.90137C11.9638 10.873 9.91312 12.1504 8.90332 12.8076L7.06934 25.4492H10.6768C11.4712 24.4414 12.2998 23.2669 13.584 20.502C14.7096 18.0785 15.144 16.9284 15.4932 15.7969L15.5225 15.7139C15.6858 15.3146 16.0698 15.1366 16.3936 15.1318C16.694 15.1275 17.0474 15.2692 17.2402 15.5986L17.3125 15.752L17.4971 16.2275C17.6949 16.7149 17.9318 17.2444 18.2129 17.8691C18.5857 18.6977 19.0316 19.682 19.5508 20.9189C20.0979 22.2222 20.787 23.423 21.3438 24.3018C21.6213 24.7399 21.8646 25.0952 22.0371 25.3398C22.065 25.3795 22.0921 25.4156 22.1162 25.4492H25.7061L23.8721 12.8076C22.8623 12.1504 20.8116 10.873 19.7188 9.90137C18.0305 8.40029 17.0919 7.5389 16.3877 6.83594ZM16.4443 17.1641C16.105 18.1196 15.6338 19.253 14.793 21.0635C13.7779 23.249 13.0221 24.4986 12.3438 25.4492H20.501C20.4121 25.3146 20.3162 25.17 20.2178 25.0146C19.6373 24.0985 18.9068 22.8295 18.3213 21.4346C17.8098 20.2161 17.371 19.2481 16.9971 18.417C16.7952 17.9682 16.6109 17.5546 16.4443 17.1641Z" fill="#8A8A8A"/>
</svg>
