<svg width="16" height="17" viewBox="0 0 16 17" fill="none" xmlns="http://www.w3.org/2000/svg">
<path d="M7.99775 11.11C7.66375 11.11 7.37875 10.9913 7.14275 10.7538C6.90675 10.5163 6.78875 10.2305 6.78875 9.8965C6.78875 9.5625 6.9075 9.2775 7.145 9.0415C7.3825 8.8055 7.6685 8.6875 8.003 8.6875C8.3375 8.6875 8.6225 8.8065 8.858 9.0445C9.0935 9.2825 9.2115 9.56825 9.212 9.90175C9.2125 10.2353 9.0935 10.5202 8.855 10.7567C8.6165 10.9932 8.33075 11.1112 7.99775 11.1107M5.28125 5.3125H10.7188L11.675 3.37075C11.781 3.16925 11.7765 2.97375 11.6615 2.78425C11.5465 2.59475 11.374 2.5 11.144 2.5H4.856C4.626 2.5 4.4535 2.59475 4.3385 2.78425C4.2235 2.97375 4.219 3.1695 4.325 3.3715L5.28125 5.3125ZM5.47325 14.5H10.5268C11.4918 14.5 12.3118 14.1623 12.9868 13.4868C13.6623 12.8113 14 11.9897 14 11.0222C14 10.6182 13.9307 10.2247 13.7922 9.84175C13.6537 9.45875 13.4538 9.11 13.1923 8.7955L10.9107 6.0625H5.08925L2.80775 8.7955C2.54625 9.11 2.34625 9.45875 2.20775 9.84175C2.06925 10.2242 2 10.6177 2 11.0222C2 11.9897 2.33775 12.8113 3.01325 13.4868C3.68875 14.1623 4.50875 14.5 5.47325 14.5Z" fill="#B0B0B0"/>
</svg>
