<svg width="25" height="24" viewBox="0 0 25 24" fill="none" xmlns="http://www.w3.org/2000/svg">
<path d="M17.3138 6.78711C18.2993 6.96041 19.1075 7.47994 19.7393 8.3457C20.2952 9.11275 20.6743 10.0776 20.8762 11.2402C21.0534 12.3042 21.0401 13.3677 20.8382 14.4316C20.535 16.188 19.9287 17.6602 19.0191 18.8477C17.9323 20.2827 16.5682 21 14.9259 21C14.5214 21 14.0797 20.8764 13.5993 20.6289C13.2707 20.4311 12.9045 20.332 12.5 20.332C12.0955 20.332 11.7297 20.4311 11.4007 20.6289C10.9203 20.8764 10.4786 21 10.0741 21C8.43182 21 7.06767 20.2827 5.9809 18.8477C5.07134 17.6602 4.46496 16.188 4.16178 14.4316C3.9599 13.3677 3.94662 12.3042 4.12383 11.2402C4.3257 10.0776 4.70478 9.11275 5.26069 8.3457C5.89249 7.47994 6.70073 6.96041 7.68619 6.78711C8.29256 6.68803 9.12623 6.77486 10.1876 7.04688C11.0971 7.29439 11.8678 7.59127 12.4996 7.9375C13.1314 7.59127 13.9021 7.29439 14.8117 7.04688C15.8734 6.77486 16.7074 6.68803 17.3138 6.78711ZM15.2291 5.26562C14.8754 5.58736 14.4075 5.82227 13.8266 5.9707C13.4221 6.09428 12.9804 6.15625 12.5 6.15625L11.9316 6.11914C11.8811 5.77291 11.8811 5.37695 11.9316 4.93164C12.0329 4.04102 12.3232 3.3608 12.8032 2.89062C13.1568 2.56889 13.6247 2.33398 14.2057 2.18555C14.6102 2.06197 15.0519 2 15.5323 2L16.1007 2.03711L16.1386 2.59375C16.1386 3.06393 16.0753 3.49662 15.9493 3.89258C15.7979 4.46146 15.5581 4.91939 15.2291 5.26562Z" fill="black"/>
</svg>
