<svg width="49" height="48" viewBox="0 0 49 48" fill="none" xmlns="http://www.w3.org/2000/svg">
<path fill-rule="evenodd" clip-rule="evenodd" d="M42.5 24C42.5 14.0586 34.4414 6 24.5 6C14.5586 6 6.5 14.0586 6.5 24C6.5 33.9414 14.5586 42 24.5 42C34.4414 42 42.5 33.9414 42.5 24ZM22.7 31.2C22.7 30.7226 22.8896 30.2648 23.2272 29.9272C23.5648 29.5896 24.0226 29.4 24.5 29.4H24.5144C24.9918 29.4 25.4496 29.5896 25.7872 29.9272C26.1248 30.2648 26.3144 30.7226 26.3144 31.2C26.3144 31.6774 26.1248 32.1352 25.7872 32.4728C25.4496 32.8104 24.9918 33 24.5144 33H24.5C24.0226 33 23.5648 32.8104 23.2272 32.4728C22.8896 32.1352 22.7 31.6774 22.7 31.2ZM24.5 15C24.9774 15 25.4352 15.1896 25.7728 15.5272C26.1104 15.8648 26.3 16.3226 26.3 16.8V25.8C26.3 26.2774 26.1104 26.7352 25.7728 27.0728C25.4352 27.4104 24.9774 27.6 24.5 27.6C24.0226 27.6 23.5648 27.4104 23.2272 27.0728C22.8896 26.7352 22.7 26.2774 22.7 25.8V16.8C22.7 16.3226 22.8896 15.8648 23.2272 15.5272C23.5648 15.1896 24.0226 15 24.5 15Z" fill="#FF5940"/>
</svg>
