<svg width="25" height="24" viewBox="0 0 25 24" fill="none" xmlns="http://www.w3.org/2000/svg">
<path fill-rule="evenodd" clip-rule="evenodd" d="M21.5 12C21.5 7.0293 17.4707 3 12.5 3C7.5293 3 3.5 7.0293 3.5 12C3.5 16.9707 7.5293 21 12.5 21C17.4707 21 21.5 16.9707 21.5 12ZM11.6 15.6C11.6 15.3613 11.6948 15.1324 11.8636 14.9636C12.0324 14.7948 12.2613 14.7 12.5 14.7H12.5072C12.7459 14.7 12.9748 14.7948 13.1436 14.9636C13.3124 15.1324 13.4072 15.3613 13.4072 15.6C13.4072 15.8387 13.3124 16.0676 13.1436 16.2364C12.9748 16.4052 12.7459 16.5 12.5072 16.5H12.5C12.2613 16.5 12.0324 16.4052 11.8636 16.2364C11.6948 16.0676 11.6 15.8387 11.6 15.6ZM12.5 7.5C12.7387 7.5 12.9676 7.59482 13.1364 7.7636C13.3052 7.93239 13.4 8.16131 13.4 8.4V12.9C13.4 13.1387 13.3052 13.3676 13.1364 13.5364C12.9676 13.7052 12.7387 13.8 12.5 13.8C12.2613 13.8 12.0324 13.7052 11.8636 13.5364C11.6948 13.3676 11.6 13.1387 11.6 12.9V8.4C11.6 8.16131 11.6948 7.93239 11.8636 7.7636C12.0324 7.59482 12.2613 7.5 12.5 7.5Z" fill="#C4C4C4"/>
</svg>
