<svg width="54" height="54" viewBox="0 0 54 54" fill="none" xmlns="http://www.w3.org/2000/svg">
<circle cx="27" cy="27" r="27" fill="#FF5940"/>
<path d="M36.3433 27.3899V23.5908H40.435L43.8935 26.513V35.5732L41.2144 39.0317H36.3433V35.5732H39.0711L40.435 34.258V28.7537L39.0711 27.3899H36.3433Z" fill="#E7B16A"/>
<path d="M16.0215 21.5156H36.1976C36.1976 29.0019 36.1976 32.8476 36.1976 39.4195C36.1976 41.0867 34.846 42.4385 33.1788 42.4385H19.0403C17.3731 42.4385 16.0215 41.0869 16.0215 39.4197V21.5156Z" fill="#E7B16A"/>
<path d="M29.6326 9.83065C32.5716 10.8904 33.0656 13.6448 32.9452 14.8895C33.989 15.2108 36.2212 15.9858 36.7994 16.5158C37.5221 17.1783 38.4857 19.8283 36.0766 21.6351C34.1494 23.0805 31.8206 21.9161 30.8972 21.1533H21.2609C20.8194 21.876 19.6953 23.3937 18.7314 23.6828C17.5265 24.0441 14.8169 24.2248 14.034 21.1533C13.4076 18.696 14.9373 17.0378 15.7804 16.5158C15.2785 15.6325 14.5759 13.5286 15.7804 12.1795C16.9849 10.8304 19.0529 11.0553 19.9363 11.3363C20.3377 11.1156 21.3575 10.5055 22.2247 9.83065C23.3088 8.98714 25.9588 8.506 29.6326 9.83065Z" fill="white"/>
<path d="M25.5898 8C29.4719 8.00023 32.6505 10.7507 33.4326 14.3848C33.53 14.325 33.6441 14.2891 33.7666 14.2891C34.9369 14.2893 36.0602 14.7545 36.8877 15.582C37.7152 16.4097 38.1797 17.5327 38.1797 18.7031C38.1797 19.8597 37.7252 20.9692 36.916 21.7939C36.9175 21.8117 36.9219 21.8295 36.9219 21.8477V22.8467H39.4277C40.7701 22.8506 42.0523 23.4034 42.9951 24.377C43.9372 25.35 44.4649 26.6648 44.4688 28.0322V34.5312C44.465 35.8988 43.9373 37.2134 42.9951 38.1865C42.0523 39.1603 40.7703 39.7129 39.4277 39.7168H36.9219L36.916 39.9043C36.867 40.8382 36.4749 41.7242 35.8105 42.3887C35.1018 43.0974 34.1409 43.4969 33.1387 43.5H19.2988C18.2966 43.497 17.3357 43.0973 16.627 42.3887C15.9183 41.6799 15.5186 40.7191 15.5156 39.7168V23.9453C15.0661 23.7311 14.6518 23.4408 14.293 23.082C13.4653 22.2543 12.999 21.1315 12.999 19.9609C12.9991 18.7903 13.4652 17.6676 14.293 16.8398C14.4709 16.6619 14.6625 16.5008 14.8652 16.3574C14.7309 16.1496 14.6171 15.9285 14.5254 15.6973C14.3329 15.2116 14.2433 14.691 14.2617 14.1689C14.2801 13.6468 14.4066 13.134 14.6328 12.6631C14.859 12.1923 15.1802 11.7732 15.5762 11.4326C15.9721 11.0921 16.4344 10.8368 16.9336 10.6836C17.4329 10.5305 17.9597 10.4821 18.4785 10.542C18.852 10.5852 19.2165 10.6841 19.5596 10.834C19.5703 10.8194 19.5806 10.8039 19.5928 10.79C21.0661 9.11105 23.1487 8.00007 25.5898 8ZM21.6133 21.8594C20.7944 23.5941 19.1444 24.3749 17.4141 24.375C17.2065 24.375 17.0001 24.3588 16.7969 24.3301V39.7139L16.8096 39.9609C16.868 40.534 17.1224 41.0726 17.5332 41.4834C18.0027 41.9527 18.6389 42.2177 19.3027 42.2197H33.1348C33.7987 42.2176 34.4358 41.9529 34.9053 41.4834C35.3743 41.0142 35.6392 40.3783 35.6416 39.7148V39.0869C35.6416 39.0837 35.6406 39.0804 35.6406 39.0771C35.6406 39.0736 35.6415 39.07 35.6416 39.0664V23.4971C35.6416 23.4938 35.6406 23.4906 35.6406 23.4873C35.6406 23.4837 35.6415 23.4801 35.6416 23.4766V22.6973C35.0602 22.9703 34.4211 23.117 33.7666 23.1172C33.1372 23.1172 32.4732 22.946 31.8848 22.6924C31.388 22.4782 30.9123 22.1902 30.5293 21.8594H21.6133ZM36.9219 38.4365H39.4238C40.4144 38.4336 41.3682 38.026 42.0752 37.2959C42.7823 36.5656 43.1841 35.5716 43.1875 34.5303V28.0361L43.1826 27.8408C43.1334 26.8704 42.7384 25.9536 42.0752 25.2686C41.4124 24.5841 40.5329 24.1827 39.6094 24.1328L39.4238 24.1279H36.9219V38.4365ZM21.1875 26.6104C21.5408 26.6106 21.828 26.8966 21.8281 27.25V36.8291C21.8279 37.1824 21.5408 37.4685 21.1875 37.4688C20.8341 37.4686 20.5471 37.1825 20.5469 36.8291V27.25C20.547 26.8965 20.834 26.6105 21.1875 26.6104ZM26.2188 26.6104C26.5721 26.6106 26.8592 26.8966 26.8594 27.25V36.8291C26.8592 37.1824 26.5721 37.4685 26.2188 37.4688C25.8654 37.4686 25.5793 37.1825 25.5791 36.8291V27.25C25.5793 26.8966 25.8653 26.6105 26.2188 26.6104ZM31.25 26.6104C31.6033 26.6106 31.8905 26.8966 31.8906 27.25V36.8291C31.8904 37.1824 31.6033 37.4685 31.25 37.4688C30.8967 37.4685 30.6105 37.1824 30.6104 36.8291V27.25C30.6105 26.8966 30.8966 26.6106 31.25 26.6104ZM25.5898 9.28125C23.6041 9.28132 21.8899 10.1599 20.6357 11.5449C20.806 11.705 20.9621 11.8806 21.1006 12.0703L21.1025 12.0723V12.0732C21.1032 12.0739 21.1048 12.0752 21.1055 12.0762C21.107 12.0783 21.1089 12.0816 21.1113 12.085C21.1167 12.0925 21.1246 12.1031 21.1338 12.1162C21.1524 12.1427 21.1781 12.1807 21.209 12.2266C21.2704 12.3178 21.3537 12.4452 21.4375 12.5879C21.5203 12.7288 21.6111 12.8962 21.6826 13.0645C21.7467 13.2152 21.8281 13.4394 21.8281 13.6719C21.8281 14.0254 21.5409 14.3122 21.1875 14.3125C20.8339 14.3124 20.5469 14.0255 20.5469 13.6719C20.5469 13.7079 20.5529 13.6808 20.5039 13.5654C20.4623 13.4676 20.402 13.353 20.334 13.2373C20.2671 13.1235 20.1991 13.0181 20.1475 12.9414C20.1219 12.9035 20.1003 12.873 20.0859 12.8525C20.0789 12.8425 20.0728 12.8349 20.0693 12.8301C20.0679 12.8281 20.0671 12.8262 20.0664 12.8252L20.0654 12.8232C19.8619 12.5451 19.6024 12.3122 19.3047 12.1387C19.0062 11.9647 18.6743 11.8541 18.3311 11.8145C17.9879 11.7749 17.6398 11.8069 17.3096 11.9082C16.9793 12.0095 16.6731 12.1781 16.4111 12.4033C16.1491 12.6287 15.9368 12.9063 15.7871 13.2178C15.6374 13.5293 15.5532 13.8684 15.541 14.2139C15.5288 14.5592 15.5885 14.9034 15.7158 15.2246C15.7935 15.4204 15.8972 15.6038 16.0205 15.7734C16.4658 15.6253 16.936 15.5469 17.4141 15.5469C17.4229 15.5469 17.4326 15.5475 17.4414 15.5479C18.3021 15.5841 19.1342 15.8723 19.833 16.376C20.1192 16.5829 20.1839 16.9829 19.9775 17.2695C19.7708 17.5563 19.3708 17.6206 19.084 17.4141C18.5923 17.0597 18.0075 16.8565 17.4023 16.8281C16.5758 16.8312 15.783 17.1605 15.1982 17.7451C14.6107 18.3327 14.2813 19.13 14.2812 19.9609C14.2812 20.7919 14.6107 21.5892 15.1982 22.1768C15.7858 22.7642 16.5832 23.0947 17.4141 23.0947C18.8507 23.0946 20.0666 22.4281 20.5859 21L20.627 20.9092C20.7383 20.7076 20.9521 20.5782 21.1875 20.5781H30.7783C30.9478 20.5783 31.1115 20.6458 31.2314 20.7656C31.5041 21.0382 31.9182 21.3115 32.3916 21.5156C32.8653 21.7198 33.3548 21.8359 33.7666 21.8359C34.5971 21.8357 35.3941 21.5062 35.9814 20.9189C36.5689 20.3314 36.8994 19.534 36.8994 18.7031C36.8994 17.8723 36.5689 17.0748 35.9814 16.4873C35.3941 15.9001 34.5971 15.5706 33.7666 15.5703C33.7077 15.5703 33.6509 15.5598 33.5967 15.5449C33.61 15.7367 33.6201 15.93 33.6201 16.125C33.6204 16.6345 33.5726 17.1431 33.4775 17.6436C33.4116 17.9907 33.0766 18.2188 32.7295 18.1533C32.382 18.0873 32.1537 17.7517 32.2197 17.4043C32.2998 16.9829 32.3401 16.5549 32.3398 16.126C32.3398 12.3519 29.3432 9.28152 25.5898 9.28125Z" fill="#7E2F23"/>
<path d="M36.4146 27.4912H38.0708C38.6852 27.493 39.274 27.4952 39.7085 27.9279C40.1429 28.3606 40.3878 29.1886 40.3895 29.8006V33.0996C40.3878 33.7116 40.3477 34.3237 39.9132 34.7564C39.4787 35.1891 38.6852 35.4072 38.0708 35.409H36.4146" stroke="#70281D" stroke-width="1.28071" stroke-miterlimit="10" stroke-linecap="round"/>
</svg>
