<svg width="32" height="32" viewBox="0 0 32 32" fill="none" xmlns="http://www.w3.org/2000/svg">
<path d="M8.00001 25.3338H12.9227V18.5645C12.9227 18.2596 13.0262 18.004 13.2333 17.7978C13.4396 17.5907 13.6951 17.4871 14 17.4871H18C18.3049 17.4871 18.5609 17.5907 18.768 17.7978C18.9742 18.004 19.0773 18.2596 19.0773 18.5645V25.3338H24V13.7445C24 13.6076 23.9702 13.4831 23.9107 13.3711C23.8511 13.2591 23.7698 13.1614 23.6667 13.0778L16.488 7.66714C16.3511 7.54803 16.1884 7.48848 16 7.48848C15.8116 7.48848 15.6493 7.54803 15.5133 7.66714L8.33334 13.0778C8.23112 13.1631 8.14978 13.2609 8.08934 13.3711C8.02889 13.4814 7.99912 13.6058 8.00001 13.7445V25.3338ZM6.66667 25.3338V13.7445C6.66667 13.4031 6.74312 13.08 6.89601 12.7751C7.04889 12.4703 7.25956 12.2191 7.52801 12.0218L14.708 6.58448C15.084 6.29736 15.5133 6.15381 15.996 6.15381C16.4787 6.15381 16.9107 6.29736 17.292 6.58448L24.472 12.0205C24.7413 12.2178 24.952 12.4694 25.104 12.7751C25.2569 13.08 25.3333 13.4031 25.3333 13.7445V25.3338C25.3333 25.6911 25.2005 26.0027 24.9347 26.2685C24.6689 26.5343 24.3573 26.6671 24 26.6671H18.8213C18.5156 26.6671 18.2596 26.564 18.0533 26.3578C17.8471 26.1507 17.744 25.8947 17.744 25.5898V18.8218H14.256V25.5898C14.256 25.8956 14.1529 26.1516 13.9467 26.3578C13.7404 26.564 13.4849 26.6671 13.18 26.6671H8.00001C7.64267 26.6671 7.33112 26.5343 7.06534 26.2685C6.79956 26.0027 6.66667 25.6911 6.66667 25.3338Z" fill="#8A8A8A"/>
</svg>
