<svg xmlns="http://www.w3.org/2000/svg" width="14" height="15" viewBox="0 0 14 15" fill="none">
  <path d="M9.57916 1.14538C8.92427 0.406755 8.00959 0 7 0C5.98503 0 5.06731 0.404294 4.41546 1.13835C3.75653 1.8805 3.43548 2.88912 3.51087 3.97826C3.66028 6.12699 5.22548 7.87495 7 7.87495C8.77452 7.87495 10.337 6.12734 10.4888 3.97896C10.5652 2.89967 10.2421 1.89315 9.57916 1.14538ZM12.9229 14.9999H1.07709C0.922035 15.002 0.768484 14.968 0.627605 14.9003C0.486727 14.8326 0.362063 14.733 0.262685 14.6086C0.0439413 14.3355 -0.0442294 13.9625 0.0210573 13.5852C0.305088 11.9392 1.19151 10.5565 2.58474 9.58588C3.82249 8.7242 5.39038 8.24995 7 8.24995C8.60962 8.24995 10.1775 8.72456 11.4153 9.58588C12.8085 10.5562 13.6949 11.9389 13.9789 13.5849C14.0442 13.9621 13.9561 14.3351 13.7373 14.6083C13.638 14.7327 13.5133 14.8324 13.3724 14.9001C13.2316 14.9679 13.078 15.002 12.9229 14.9999Z" fill="#B0B0B0"/>
</svg>