<svg width="16" height="20" viewBox="0 0 16 20" fill="none" xmlns="http://www.w3.org/2000/svg">
<path d="M5.04115 8.95993C5.05621 9.09265 5.10802 9.22 5.19196 9.33058C5.35701 9.55235 5.46895 9.80193 5.52082 10.0638C5.52082 10.2455 6.22124 10.6234 7.38317 10.726C7.44819 10.7321 7.51394 10.7254 7.57571 10.7064C7.63747 10.6873 7.69373 10.6563 7.74044 10.6156C7.78716 10.575 7.82317 10.5256 7.8459 10.4711C7.86863 10.4166 7.87751 10.3583 7.87192 10.3004L6.98435 0.930762C6.97976 0.878959 6.96374 0.828467 6.93719 0.782168C6.91065 0.73587 6.8741 0.694673 6.82964 0.66093C6.78519 0.627186 6.73369 0.601557 6.67809 0.585505C6.62249 0.569454 6.56387 0.563294 6.50559 0.567379L4.73137 0.703042C4.67309 0.707123 4.61628 0.721368 4.5642 0.744964C4.51211 0.768559 4.46577 0.801043 4.42781 0.840561C4.38984 0.880078 4.36101 0.925855 4.34295 0.975278C4.32489 1.0247 4.31797 1.0768 4.32256 1.1286L5.04115 8.95993ZM10.4538 10.0323C10.5051 9.75054 10.6231 9.48164 10.7999 9.24337C10.8862 9.13031 10.938 9.00111 10.9507 8.86464L11.6602 1.06481C11.6695 0.960318 11.6318 0.85682 11.5553 0.777033C11.4788 0.697247 11.3698 0.647693 11.2523 0.639248L9.47808 0.5052C9.4198 0.501001 9.36116 0.507049 9.30551 0.522999C9.24986 0.53895 9.19829 0.564489 9.15374 0.59816C9.1092 0.63183 9.07256 0.672971 9.0459 0.719232C9.01925 0.765494 9.00311 0.815969 8.99841 0.867776L8.11175 10.2374C8.10618 10.2953 8.11505 10.3535 8.13773 10.4079C8.16041 10.4623 8.19633 10.5117 8.24294 10.5523C8.28955 10.593 8.34569 10.624 8.40735 10.6431C8.469 10.6622 8.53465 10.669 8.5996 10.663C9.77151 10.6234 10.4183 10.2455 10.4538 10.0323ZM12.6186 8.45523H13.9141C14.009 8.45555 14.1014 8.42894 14.1781 8.37926C14.2547 8.32958 14.3115 8.25944 14.3402 8.17906L15.9818 3.56489C16.0148 3.46445 16.0026 3.35653 15.9479 3.26389C15.8932 3.17124 15.8001 3.10111 15.6883 3.06827L13.994 2.59506C13.8859 2.55664 13.7652 2.55664 13.657 2.59506C13.6052 2.61942 13.5596 2.653 13.523 2.6937C13.4864 2.73441 13.4597 2.78137 13.4444 2.83166L11.4831 8.35267C11.4681 8.3882 11.466 8.427 11.477 8.46364C11.4881 8.50028 11.5118 8.53292 11.5448 8.55698C11.5794 8.57616 11.6194 8.58633 11.6602 8.58633C11.701 8.58633 11.741 8.57616 11.7756 8.55698C12.0464 8.47418 12.3328 8.43961 12.6186 8.45523ZM1.65259 8.17906C1.68119 8.2593 1.73784 8.32935 1.8143 8.37902C1.89076 8.42868 1.98305 8.45538 2.07775 8.45523H3.35596C3.66029 8.45281 3.96281 8.5061 4.24262 8.61269C4.31529 8.65388 4.40977 8.65388 4.48245 8.61269C4.51963 8.58412 4.54507 8.54537 4.55477 8.50254C4.56448 8.45971 4.55789 8.41523 4.53605 8.37609L2.5665 2.85508C2.55113 2.80472 2.52424 2.75771 2.4875 2.717C2.45077 2.67629 2.40499 2.64275 2.35302 2.61848C2.24483 2.58006 2.12417 2.58006 2.01598 2.61848L0.321695 3.09168C0.212454 3.12138 0.119812 3.18658 0.0622306 3.27427C0.00464966 3.36197 -0.0136419 3.46574 0.0110012 3.56489L1.65259 8.17906Z" fill="black"/>
<path d="M15.6447 10.5997C15.6735 10.4859 15.6735 10.3679 15.6449 10.2542C15.6162 10.1404 15.5595 10.0337 15.4789 9.9417C15.3983 9.84974 15.2957 9.77479 15.1786 9.72227C15.0615 9.66974 14.9328 9.64094 14.8017 9.63793H12.6186C12.41 9.63498 12.2069 9.69724 12.0447 9.81383C11.8825 9.93043 11.7715 10.094 11.7311 10.2759C11.5012 11.4201 9.61072 11.9329 7.95187 11.9329C6.29301 11.9329 4.40251 11.4201 4.17266 10.2767C4.13243 10.0946 4.02151 9.9309 3.85928 9.81414C3.69704 9.69739 3.49381 9.63502 3.2851 9.63793H1.19109C1.05621 9.63501 0.922361 9.65946 0.799708 9.70942C0.677055 9.75939 0.568831 9.83355 0.483261 9.92627C0.397692 10.019 0.337029 10.1278 0.305885 10.2445C0.27474 10.3612 0.273934 10.4827 0.303526 10.5997L2.61102 18.6208C2.74729 19.136 3.26511 19.4994 3.86106 19.4961H12.1308C12.4184 19.4967 12.6978 19.4115 12.9246 19.2543C13.1513 19.0971 13.3123 18.8769 13.3817 18.6289L15.6447 10.5997Z" fill="black"/>
</svg>
