<svg width="33" height="32" viewBox="0 0 33 32" fill="none" xmlns="http://www.w3.org/2000/svg">
<path d="M24.4445 6.6665H8.8889C8.47634 6.6665 8.08068 6.83039 7.78896 7.12212C7.49723 7.41384 7.33334 7.8095 7.33334 8.22206V23.7776C7.33334 24.1902 7.49723 24.5858 7.78896 24.8776C8.08068 25.1693 8.47634 25.3332 8.8889 25.3332H19.456C19.6603 25.3335 19.8626 25.2934 20.0514 25.2151C20.2401 25.1369 20.4114 25.022 20.5556 24.8772L25.544 19.8887C25.6889 19.7446 25.8037 19.5732 25.882 19.3845C25.9602 19.1958 26.0003 18.9934 26 18.7891V8.22206C26 7.8095 25.8361 7.41384 25.5444 7.12212C25.2527 6.83039 24.857 6.6665 24.4445 6.6665ZM13.5556 12.1109H19.7778C19.9841 12.1109 20.1819 12.1929 20.3278 12.3388C20.4736 12.4846 20.5556 12.6824 20.5556 12.8887C20.5556 13.095 20.4736 13.2928 20.3278 13.4387C20.1819 13.5846 19.9841 13.6665 19.7778 13.6665H13.5556C13.3493 13.6665 13.1515 13.5846 13.0056 13.4387C12.8597 13.2928 12.7778 13.095 12.7778 12.8887C12.7778 12.6824 12.8597 12.4846 13.0056 12.3388C13.1515 12.1929 13.3493 12.1109 13.5556 12.1109ZM16.6667 19.8887H13.5556C13.3493 19.8887 13.1515 19.8068 13.0056 19.6609C12.8597 19.5151 12.7778 19.3172 12.7778 19.1109C12.7778 18.9047 12.8597 18.7068 13.0056 18.561C13.1515 18.4151 13.3493 18.3332 13.5556 18.3332H16.6667C16.873 18.3332 17.0708 18.4151 17.2167 18.561C17.3625 18.7068 17.4445 18.9047 17.4445 19.1109C17.4445 19.3172 17.3625 19.5151 17.2167 19.6609C17.0708 19.8068 16.873 19.8887 16.6667 19.8887ZM13.5556 16.7776C13.3493 16.7776 13.1515 16.6957 13.0056 16.5498C12.8597 16.4039 12.7778 16.2061 12.7778 15.9998C12.7778 15.7936 12.8597 15.5957 13.0056 15.4499C13.1515 15.304 13.3493 15.2221 13.5556 15.2221H19.7778C19.9841 15.2221 20.1819 15.304 20.3278 15.4499C20.4736 15.5957 20.5556 15.7936 20.5556 15.9998C20.5556 16.2061 20.4736 16.4039 20.3278 16.5498C20.1819 16.6957 19.9841 16.7776 19.7778 16.7776H13.5556ZM19.7778 23.4558V19.1109H24.1236L19.7778 23.4558Z" fill="#FF5940"/>
</svg>
