<svg width="32" height="33" viewBox="0 0 32 33" fill="none" xmlns="http://www.w3.org/2000/svg">
<path d="M25.4991 15.4168C25.4991 14.3671 25.0821 13.3604 24.3399 12.6182C23.5976 11.876 22.591 11.459 21.5413 11.459C20.4916 11.459 19.4849 11.876 18.7427 12.6182C18.0005 13.3604 17.5835 14.3671 17.5835 15.4168" stroke="#FF5940" stroke-width="1.58333" stroke-linecap="round"/>
<path d="M6.5012 2.75206V15.4168M10.459 1.9605V9.8761M14.4168 1.16895V9.8761M3.33496 5.12674L6.5012 4.63281M28.6649 1.16895L18.3746 2.77739M3.33496 9.08454L6.5012 8.88665M28.6649 7.50142L18.3746 8.14417" stroke="#FF5940" stroke-width="1.58333" stroke-linecap="round" stroke-linejoin="round"/>
<path d="M4.77707 15.4165H27.2241C29.7603 15.4165 30.6911 16.0023 30.0579 18.5542C28.9402 23.0551 25.7787 24.1727 22.8563 27.1094C22.147 27.8218 23.2521 28.8778 23.2521 29.663C23.2521 31.1416 21.8478 31.2477 20.727 31.2477H11.2758C10.1549 31.2477 8.74912 31.1416 8.7507 29.6646C8.7507 28.8952 9.82247 27.7902 9.14648 27.1094C6.22404 24.1727 3.06255 23.0551 1.94487 18.5542C1.31162 16.0038 2.2425 15.4165 4.77865 15.4165H4.77707Z" stroke="#FF5940" stroke-width="1.58333" stroke-linejoin="round"/>
</svg>
