<svg width="24" height="24" viewBox="0 0 24 24" fill="none" xmlns="http://www.w3.org/2000/svg">
<path d="M12 15.7089L5.02242 8.43392C4.96619 8.37403 4.89944 8.32668 4.82601 8.29461C4.75259 8.26254 4.67396 8.24639 4.59467 8.24709C4.51539 8.2478 4.43702 8.26534 4.3641 8.29872C4.29119 8.33209 4.22517 8.38062 4.16988 8.44151C4.11458 8.5024 4.07111 8.57444 4.04197 8.65345C4.01283 8.73246 3.9986 8.81688 4.00011 8.90182C4.00162 8.98676 4.01883 9.07054 4.05076 9.1483C4.08269 9.22607 4.12869 9.29628 4.18611 9.35487L11.5818 17.0651C11.6938 17.1818 11.8438 17.2471 12 17.2471C12.1562 17.2471 12.3062 17.1818 12.4182 17.0651L19.8139 9.35487C19.8713 9.29628 19.9173 9.22607 19.9492 9.1483C19.9812 9.07054 19.9984 8.98676 19.9999 8.90182C20.0014 8.81688 19.9872 8.73246 19.958 8.65345C19.9289 8.57444 19.8854 8.5024 19.8301 8.44151C19.7748 8.38062 19.7088 8.33209 19.6359 8.29872C19.563 8.26534 19.4846 8.2478 19.4053 8.24709C19.326 8.24639 19.2474 8.26254 19.174 8.29461C19.1006 8.32668 19.0338 8.37403 18.9776 8.43392L12 15.7089Z" fill="#737373"/>
</svg>
