<svg xmlns="http://www.w3.org/2000/svg" width="12" height="12" viewBox="0 0 12 12" fill="none">
  <path d="M0.666016 4.36624C0.666016 3.36038 0.666016 2.85798 0.978549 2.54544C1.29108 2.23291 1.79348 2.23291 2.79935 2.23291H9.19935C10.2052 2.23291 10.7076 2.23291 11.0201 2.54544C11.3327 2.85798 11.3327 3.36038 11.3327 4.36624C11.3327 4.61744 11.3327 4.74331 11.2548 4.82171C11.1764 4.89958 11.05 4.89958 10.7993 4.89958H1.19935C0.948149 4.89958 0.822282 4.89958 0.743882 4.82171C0.666016 4.74331 0.666016 4.61691 0.666016 4.36624ZM0.666016 9.16624C0.666016 10.1721 0.666016 10.6745 0.978549 10.987C1.29108 11.2996 1.79348 11.2996 2.79935 11.2996H9.19935C10.2052 11.2996 10.7076 11.2996 11.0201 10.987C11.3327 10.6745 11.3327 10.1721 11.3327 9.16624V6.49958C11.3327 6.24838 11.3327 6.12251 11.2548 6.04411C11.1764 5.96624 11.05 5.96624 10.7993 5.96624H1.19935C0.948149 5.96624 0.822282 5.96624 0.743882 6.04411C0.666016 6.12251 0.666016 6.24891 0.666016 6.49958V9.16624Z" fill="#B0B0B0"/>
  <path d="M3.33398 1.1665V2.7665M8.66732 1.1665V2.7665" stroke="#B0B0B0" stroke-width="1.33333" stroke-linecap="round"/>
</svg>