<svg width="24" height="24" viewBox="0 0 24 24" fill="none" xmlns="http://www.w3.org/2000/svg">
<path fill-rule="evenodd" clip-rule="evenodd" d="M8 10L6 8L12 2L18 8L16 10V17C16 17.2652 16.1054 17.5196 16.2929 17.7071C16.4804 17.8946 16.7348 18 17 18C17.2652 18 17.5196 17.8946 17.7071 17.7071C17.8946 17.5196 18 17.2652 18 17C18 16.7348 18.1054 16.4804 18.2929 16.2929C18.4804 16.1054 18.7348 16 19 16C19.2652 16 19.5196 16.1054 19.7071 16.2929C19.8946 16.4804 20 16.7348 20 17C20 17.5791 19.8324 18.1459 19.5173 18.6318C19.2023 19.1178 18.7534 19.5021 18.2247 19.7386C17.696 19.975 17.1103 20.0533 16.538 19.9642C15.9658 19.875 15.4317 19.6221 15 19.236V21C15 21.2652 14.8946 21.5196 14.7071 21.7071C14.5196 21.8946 14.2652 22 14 22C13.7348 22 13.4804 21.8946 13.2929 21.7071C13.1054 21.5196 13 21.2652 13 21V19H11V21C11 21.2652 10.8946 21.5196 10.7071 21.7071C10.5196 21.8946 10.2652 22 10 22C9.73478 22 9.48043 21.8946 9.29289 21.7071C9.10536 21.5196 9 21.2652 9 21V19.236C8.56835 19.6221 8.03418 19.875 7.46196 19.9642C6.88975 20.0533 6.30395 19.975 5.77529 19.7386C5.24662 19.5021 4.79768 19.1178 4.48266 18.6318C4.16765 18.1459 4.00001 17.5791 4 17C4 16.7348 4.10536 16.4804 4.29289 16.2929C4.48043 16.1054 4.73478 16 5 16C5.26522 16 5.51957 16.1054 5.70711 16.2929C5.89464 16.4804 6 16.7348 6 17C6 17.2652 6.10536 17.5196 6.29289 17.7071C6.48043 17.8946 6.73478 18 7 18C7.26522 18 7.51957 17.8946 7.70711 17.7071C7.89464 17.5196 8 17.2652 8 17V10Z" fill="black"/>
</svg>
