<svg width="24" height="24" viewBox="0 0 24 24" fill="none" xmlns="http://www.w3.org/2000/svg">
<path d="M21.45 11.2266H20.06C19.8783 9.33613 19.0445 7.56781 17.7016 6.22492C16.3587 4.88202 14.5904 4.04823 12.7 3.86656V2.47656C12.7 2.27765 12.621 2.08688 12.4803 1.94623C12.3397 1.80558 12.1489 1.72656 11.95 1.72656C11.7511 1.72656 11.5603 1.80558 11.4197 1.94623C11.279 2.08688 11.2 2.27765 11.2 2.47656V3.86656C9.31784 4.05731 7.56021 4.89533 6.22707 6.23759C4.89393 7.57984 4.06792 9.34315 3.89 11.2266H2.5C2.40151 11.2266 2.30398 11.246 2.21299 11.2837C2.12199 11.3213 2.03931 11.3766 1.96967 11.4462C1.90003 11.5159 1.84478 11.5986 1.80709 11.6895C1.7694 11.7805 1.75 11.8781 1.75 11.9766C1.75 12.0751 1.7694 12.1726 1.80709 12.2636C1.84478 12.3546 1.90003 12.4372 1.96967 12.5069C2.03931 12.5765 2.12199 12.6318 2.21299 12.6695C2.30398 12.7072 2.40151 12.7266 2.5 12.7266H3.89C4.07167 14.617 4.90546 16.3853 6.24835 17.7282C7.59125 19.0711 9.35957 19.9049 11.25 20.0866V21.4766C11.25 21.6755 11.329 21.8662 11.4697 22.0069C11.6103 22.1475 11.8011 22.2266 12 22.2266C12.1989 22.2266 12.3897 22.1475 12.5303 22.0069C12.671 21.8662 12.75 21.6755 12.75 21.4766V20.0866C14.6397 19.903 16.407 19.0687 17.7496 17.7261C19.0921 16.3836 19.9265 14.6163 20.11 12.7266H21.5C21.5985 12.7266 21.696 12.7072 21.787 12.6695C21.878 12.6318 21.9607 12.5765 22.0303 12.5069C22.1 12.4372 22.1552 12.3546 22.1929 12.2636C22.2306 12.1726 22.25 12.0751 22.25 11.9766C22.25 11.8781 22.2306 11.7805 22.1929 11.6895C22.1552 11.5986 22.1 11.5159 22.0303 11.4462C21.9607 11.3766 21.878 11.3213 21.787 11.2837C21.696 11.246 21.5985 11.2266 21.5 11.2266H21.45ZM11.95 18.6166C10.6367 18.6166 9.35296 18.2271 8.26101 17.4975C7.16907 16.7679 6.31801 15.7309 5.81544 14.5176C5.31287 13.3043 5.18138 11.9692 5.43759 10.6812C5.69379 9.39313 6.32619 8.20999 7.25481 7.28137C8.18343 6.35275 9.36657 5.72035 10.6546 5.46415C11.9426 5.20794 13.2777 5.33944 14.491 5.842C15.7043 6.34457 16.7413 7.19563 17.471 8.28758C18.2006 9.37952 18.59 10.6633 18.59 11.9766C18.59 13.7385 17.8908 15.4285 16.6458 16.6753C15.4008 17.9221 13.712 18.6239 11.95 18.6266V18.6166Z" fill="white"/>
<path d="M16.4799 11.9873C16.4799 12.8856 16.2134 13.7638 15.7141 14.5106C15.2148 15.2574 14.5051 15.8393 13.675 16.1826C12.8448 16.526 11.9315 16.6153 11.0505 16.4393C10.1696 16.2633 9.36063 15.8299 8.7261 15.194C8.09157 14.5581 7.65997 13.7482 7.48592 12.8668C7.31188 11.9855 7.40321 11.0724 7.74837 10.243C8.09352 9.41355 8.67698 8.7052 9.4249 8.20754C10.1728 7.70988 11.0516 7.4453 11.9499 7.44728C12.5456 7.44728 13.1355 7.56478 13.6858 7.79306C14.236 8.02134 14.7359 8.35591 15.1566 8.77762C15.5774 9.19933 15.9109 9.69989 16.138 10.2506C16.365 10.8014 16.4812 11.3915 16.4799 11.9873Z" fill="white"/>
</svg>
