<svg width="12" height="15" viewBox="0 0 12 15" fill="none" xmlns="http://www.w3.org/2000/svg">
<path d="M6 0.5C4.54184 0.50172 3.14389 1.08174 2.11282 2.11281C1.08174 3.14389 0.501724 4.54184 0.500003 6C0.498663 7.19155 0.887857 8.3507 1.608 9.3C1.608 9.3 1.758 9.4975 1.7825 9.526L6 14.5L10.2195 9.5235C10.2415 9.497 10.392 9.3 10.392 9.3L10.3925 9.2985C11.1122 8.34954 11.5012 7.19098 11.5 6C11.4983 4.54184 10.9183 3.14389 9.88719 2.11281C8.85611 1.08174 7.45817 0.50172 6 0.5ZM6 8C5.60444 8 5.21776 7.8827 4.88886 7.66294C4.55997 7.44318 4.30362 7.13082 4.15224 6.76537C4.00087 6.39991 3.96126 5.99778 4.03843 5.60982C4.1156 5.22186 4.30609 4.86549 4.58579 4.58579C4.8655 4.30608 5.22186 4.1156 5.60982 4.03843C5.99779 3.96126 6.39992 4.00087 6.76537 4.15224C7.13082 4.30362 7.44318 4.55996 7.66294 4.88886C7.88271 5.21776 8 5.60444 8 6C7.99934 6.53023 7.78842 7.03855 7.41349 7.41348C7.03856 7.78841 6.53023 7.99934 6 8Z" fill="#B0B0B0"/>
</svg>
