<svg width="32" height="32" viewBox="0 0 32 32" fill="none" xmlns="http://www.w3.org/2000/svg">
<path fill-rule="evenodd" clip-rule="evenodd" d="M21.324 2.68942C21.2314 2.83103 21.1455 2.97697 21.0667 3.12675L20.636 3.90409L16.8667 5.75742L16.6427 5.86809C14.4747 6.98142 12.9467 9.07208 12.488 11.5121C12.4747 11.5788 12.4627 11.6494 12.4427 11.7654L12.4414 11.7748L12.4014 12.0054C12.0431 14.0008 11.0658 15.8327 9.60804 17.2414L8.53604 18.2948C7.86404 18.9561 7.3227 19.4894 6.91737 19.9481C6.50404 20.4148 6.1707 20.8734 5.9707 21.3988C5.7073 22.0929 5.6138 22.8399 5.69799 23.5775C5.78219 24.3151 6.04165 25.0219 6.4547 25.6388C6.76937 26.1054 7.1987 26.4734 7.7067 26.8307C8.20404 27.1801 8.85204 27.5708 9.65337 28.0534L10.604 28.6268C11.4054 29.1094 12.0534 29.4988 12.5934 29.7734C13.1427 30.0534 13.668 30.2628 14.2267 30.3148C14.9597 30.3813 15.6976 30.2589 16.3698 29.9592C17.0421 29.6595 17.6263 29.1925 18.0667 28.6028C18.4054 28.1561 18.6174 27.6268 18.7974 27.0241C18.9747 26.4308 19.1454 25.6774 19.3574 24.7374L19.6974 23.2428L19.7494 23.0148C20.2115 21.0463 21.2833 19.2741 22.812 17.9508L22.82 17.9441L23.008 17.7761C24.8187 16.1268 25.776 13.7041 25.6187 11.2241L25.5987 10.9681L25.2494 6.61209L25.7227 5.75609C25.8 5.61875 25.8827 5.46809 25.944 5.33209C26.0147 5.17742 26.092 4.96675 26.104 4.70942C26.1196 4.36637 26.0288 4.0269 25.844 3.73742C25.7241 3.55788 25.5717 3.40232 25.3947 3.27875C25.264 3.18697 25.1292 3.1011 24.9907 3.02142L23.904 2.36675C23.7606 2.27765 23.6138 2.19404 23.464 2.11609C23.261 2.012 23.0394 1.94902 22.812 1.93075C22.4524 1.90909 22.0955 2.00452 21.7947 2.20275C21.6069 2.33232 21.4465 2.49771 21.3227 2.68942M21.3094 5.80009L23.272 6.98275L23.6027 11.1174C23.6094 11.2028 23.6147 11.2548 23.616 11.2961L22.2094 11.7641C21.7969 11.902 21.3564 11.9342 20.9283 11.8578C20.5002 11.7814 20.098 11.5988 19.7587 11.3268C19.0719 10.7765 18.2417 10.4347 17.3666 10.3421C16.4915 10.2495 15.6081 10.4098 14.8214 10.8041L14.7414 10.8441C15.2758 9.39267 16.3582 8.20877 17.756 7.54675L21.3094 5.80009Z" fill="#FF5940"/>
</svg>
