<svg width="32" height="32" viewBox="0 0 32 32" fill="none" xmlns="http://www.w3.org/2000/svg">
<path d="M6.66667 25.3338V13.7445C6.66667 13.4031 6.74312 13.08 6.89601 12.7751C7.04889 12.4703 7.25956 12.2191 7.528 12.0218L14.708 6.58448C15.084 6.29736 15.5133 6.15381 15.996 6.15381C16.4787 6.15381 16.9107 6.29736 17.292 6.58448L24.472 12.0205C24.7413 12.2178 24.952 12.4694 25.104 12.7751C25.2569 13.08 25.3333 13.4031 25.3333 13.7445V25.3338C25.3333 25.6911 25.2005 26.0027 24.9347 26.2685C24.6689 26.5343 24.3573 26.6671 24 26.6671H19.488C19.1822 26.6671 18.9262 26.564 18.72 26.3578C18.5138 26.1507 18.4107 25.8947 18.4107 25.5898V19.2311C18.4107 18.9263 18.3076 18.6707 18.1013 18.4645C17.8942 18.2574 17.6382 18.1538 17.3333 18.1538H14.6667C14.3618 18.1538 14.1062 18.2574 13.9 18.4645C13.6929 18.6707 13.5893 18.9263 13.5893 19.2311V25.5911C13.5893 25.896 13.4862 26.1516 13.28 26.3578C13.0738 26.564 12.8182 26.6671 12.5133 26.6671H8.00001C7.64267 26.6671 7.33112 26.5343 7.06534 26.2685C6.79956 26.0027 6.66667 25.6911 6.66667 25.3338Z" fill="#FF5940"/>
</svg>
