<svg width="32" height="32" viewBox="0 0 32 32" fill="none" xmlns="http://www.w3.org/2000/svg">
<path d="M4 12.5714C4 10.6804 5.34531 9.14286 7 9.14286H7.075C7.42188 7.1875 8.93594 5.71429 10.75 5.71429C11.4531 5.71429 12.1094 5.93393 12.6672 6.31429C13.2906 4.94286 14.5516 4 16 4C17.4484 4 18.7094 4.94286 19.3328 6.31429C19.8906 5.93393 20.5469 5.71429 21.25 5.71429C23.0641 5.71429 24.5781 7.1875 24.925 9.14286H25C26.6547 9.14286 28 10.6804 28 12.5714C28 13.1982 27.8547 13.7821 27.5969 14.2857H4.40313C4.14531 13.7821 4 13.1982 4 12.5714ZM4 17.4679C4 16.6589 4.57656 16 5.28437 16H26.7109C27.4188 16 27.9953 16.6589 27.9953 17.4679C27.9953 21.2446 25.9141 24.4696 22.9938 25.7232L22.9141 26.5C22.8203 27.3571 22.1828 28 21.4234 28H10.5719C9.81719 28 9.175 27.3571 9.08125 26.5L8.99687 25.7286C6.08125 24.4696 4 21.2446 4 17.4679Z" fill="#FF5940"/>
</svg>
