<svg width="16" height="17" viewBox="0 0 16 17" fill="none" xmlns="http://www.w3.org/2000/svg">
<path d="M8.89955 8.49615L15.6531 1.73595C15.7723 1.61621 15.8391 1.45414 15.839 1.28523C15.8389 1.11631 15.7719 0.954327 15.6525 0.83475C15.4137 0.59715 14.9931 0.59595 14.7519 0.83595L8.00015 7.59615L1.24595 0.83415C1.00595 0.59715 0.585347 0.59835 0.346547 0.83535C0.287274 0.894386 0.240353 0.964636 0.208521 1.042C0.17669 1.11937 0.160585 1.20229 0.161147 1.28595C0.161147 1.45635 0.227147 1.61595 0.346547 1.73415L7.10015 8.49555L0.347147 15.2576C0.227978 15.3775 0.161242 15.5398 0.16158 15.7088C0.161917 15.8779 0.229301 16.0399 0.348947 16.1594C0.464747 16.2739 0.628547 16.34 0.797747 16.34H0.801347C0.971147 16.3394 1.13495 16.2728 1.24835 16.157L8.00015 9.39675L14.7543 16.1588C14.8737 16.2776 15.0333 16.3436 15.2025 16.3436C15.2862 16.3436 15.369 16.3272 15.4463 16.2953C15.5235 16.2633 15.5937 16.2164 15.6529 16.1573C15.712 16.0981 15.7589 16.0279 15.7909 15.9507C15.8228 15.8734 15.8392 15.7906 15.8391 15.707C15.8391 15.5372 15.7731 15.377 15.6531 15.2587L8.89955 8.49615Z" fill="#737373"/>
</svg>
