<svg xmlns="http://www.w3.org/2000/svg" width="20" height="21" viewBox="0 0 20 21" fill="none">
  <path d="M13.4382 1.86019C12.565 0.875348 11.3455 0.333008 9.99935 0.333008C8.64605 0.333008 7.42243 0.872067 6.55329 1.85081C5.67472 2.84034 5.24666 4.18517 5.34717 5.63735C5.5464 8.50233 7.63332 10.8329 9.99935 10.8329C12.3654 10.8329 14.4487 8.5028 14.6511 5.63829C14.7529 4.19923 14.3222 2.85721 13.4382 1.86019ZM17.8966 20.3329H2.10213C1.8954 20.3357 1.69066 20.2903 1.50282 20.2001C1.31498 20.1098 1.14877 19.977 1.01626 19.8112C0.724604 19.447 0.607043 18.9496 0.694092 18.4466C1.0728 16.252 2.25469 14.4084 4.11233 13.1142C5.76267 11.9653 7.85319 11.3329 9.99935 11.3329C12.1455 11.3329 14.236 11.9657 15.8864 13.1142C17.744 14.4079 18.9259 16.2515 19.3046 18.4462C19.3917 18.9491 19.2741 19.4465 18.9824 19.8107C18.85 19.9766 18.6838 20.1095 18.4959 20.1999C18.3081 20.2902 18.1033 20.3356 17.8966 20.3329Z" fill="#FF5940"/>
</svg>