<svg width="33" height="32" viewBox="0 0 33 32" fill="none" xmlns="http://www.w3.org/2000/svg">
<path d="M19.1429 14.1665C19.1429 14.0007 19.0676 13.8418 18.9337 13.7246C18.7997 13.6074 18.618 13.5415 18.4286 13.5415C18.2391 13.5415 18.0575 13.6074 17.9235 13.7246C17.7896 13.8418 17.7143 14.0007 17.7143 14.1665V21.6665C17.7143 21.8323 17.7896 21.9912 17.9235 22.1084C18.0575 22.2257 18.2391 22.2915 18.4286 22.2915C18.618 22.2915 18.7997 22.2257 18.9337 22.1084C19.0676 21.9912 19.1429 21.8323 19.1429 21.6665V14.1665ZM14.8572 13.5415C15.0466 13.5415 15.2283 13.6074 15.3622 13.7246C15.4962 13.8418 15.5714 14.0007 15.5714 14.1665V21.6665C15.5714 21.8323 15.4962 21.9912 15.3622 22.1084C15.2283 22.2257 15.0466 22.2915 14.8572 22.2915C14.6677 22.2915 14.486 22.2257 14.3521 22.1084C14.2181 21.9912 14.1429 21.8323 14.1429 21.6665V14.1665C14.1429 14.0007 14.2181 13.8418 14.3521 13.7246C14.486 13.6074 14.6677 13.5415 14.8572 13.5415ZM12 14.1665C12 14.0007 11.9248 13.8418 11.7908 13.7246C11.6569 13.6074 11.4752 13.5415 11.2857 13.5415C11.0963 13.5415 10.9146 13.6074 10.7807 13.7246C10.6467 13.8418 10.5714 14.0007 10.5714 14.1665V21.6665C10.5714 21.8323 10.6467 21.9912 10.7807 22.1084C10.9146 22.2257 11.0963 22.2915 11.2857 22.2915C11.4752 22.2915 11.6569 22.2257 11.7908 22.1084C11.9248 21.9912 12 21.8323 12 21.6665V14.1665ZM10.5714 6.6665C9.62424 6.6665 8.71584 6.99574 8.04606 7.5818C7.37629 8.16785 7.00002 8.9627 7.00002 9.7915V24.479C7.00002 25.6865 8.12002 26.6665 9.50002 26.6665H20.2143C20.8773 26.6665 21.5132 26.436 21.9821 26.0258C22.4509 25.6156 22.7143 25.0592 22.7143 24.479V22.9165H23.4286C24.3758 22.9165 25.2842 22.5873 25.954 22.0012C26.6237 21.4152 27 20.6203 27 19.7915V13.5415C27 12.7127 26.6237 11.9178 25.954 11.3318C25.2842 10.7457 24.3758 10.4165 23.4286 10.4165H22.7143V9.7915C22.7143 8.9627 22.338 8.16785 21.6683 7.5818C20.9985 6.99574 20.0901 6.6665 19.1429 6.6665H10.5714ZM22.7143 11.6665H23.4286C23.9969 11.6665 24.542 11.864 24.9438 12.2157C25.3457 12.5673 25.5714 13.0442 25.5714 13.5415V19.7915C25.5714 20.2888 25.3457 20.7657 24.9438 21.1173C24.542 21.469 23.9969 21.6665 23.4286 21.6665H22.7143V11.6665ZM8.42859 9.7915C8.42859 9.29422 8.65435 8.81731 9.05621 8.46568C9.45808 8.11405 10.0031 7.9165 10.5714 7.9165H19.1429C19.7112 7.9165 20.2562 8.11405 20.6581 8.46568C21.06 8.81731 21.2857 9.29422 21.2857 9.7915V10.4165H8.42859V9.7915ZM8.42859 11.6665H21.2857V24.479C21.2857 24.7276 21.1728 24.9661 20.9719 25.1419C20.771 25.3177 20.4985 25.4165 20.2143 25.4165H9.50002C9.21585 25.4165 8.94333 25.3177 8.7424 25.1419C8.54147 24.9661 8.42859 24.7276 8.42859 24.479V11.6665Z" fill="#8A8A8A"/>
</svg>
