<svg width="38" height="38" viewBox="0 0 38 38" fill="none" xmlns="http://www.w3.org/2000/svg">
<path d="M33.9728 12.6246C33.709 12.5209 33.4279 12.468 33.1445 12.4688H33.1148C31.6178 12.491 29.939 13.893 29.058 16.0134C28.0019 18.5502 28.488 21.1457 30.152 21.8129C30.4155 21.9167 30.6963 21.9695 30.9795 21.9688C32.4839 21.9688 34.1858 20.5586 35.0742 18.4241C36.1229 15.8873 35.6293 13.2918 33.9728 12.6246ZM24.3139 22.5239C22.2506 19.1002 21.36 17.8125 18.9999 17.8125C16.6397 17.8125 15.7417 19.1084 13.6784 22.5239C11.912 25.4452 8.34205 25.6886 7.45143 28.1697C7.27072 28.6242 7.17998 29.1094 7.18424 29.5984C7.18424 31.6164 8.72799 33.25 10.628 33.25C12.9881 33.25 16.2018 31.3656 19.0073 31.3656C21.8128 31.3656 25.0116 33.25 27.3717 33.25C29.2717 33.25 30.8081 31.6172 30.8081 29.5984C30.8098 29.1089 30.7165 28.6237 30.5335 28.1697C29.6428 25.6797 26.0803 25.4452 24.3139 22.5239ZM14.2877 14.5469C14.3871 14.547 14.4863 14.5395 14.5846 14.5246C16.3072 14.2745 17.3826 11.8876 16.9922 9.19199C16.6249 6.65074 15.0826 4.75 13.4698 4.75C13.3704 4.74991 13.2712 4.75736 13.173 4.77227C11.4503 5.02238 10.3749 7.40926 10.7653 10.1049C11.1327 12.6387 12.6749 14.5469 14.2877 14.5469ZM27.2322 10.1049C27.6226 7.40926 26.5472 5.02238 24.8246 4.77227C24.7263 4.75736 24.6271 4.74991 24.5277 4.75C22.9149 4.75 21.3756 6.65074 21.0075 9.19199C20.6171 11.8876 21.6925 14.2745 23.4151 14.5246C23.5134 14.5395 23.6126 14.547 23.712 14.5469C25.3248 14.5469 26.8671 12.6387 27.2322 10.1049ZM7.84998 21.8129C9.51174 21.1449 9.99713 18.5473 8.94248 16.0134C8.05483 13.8789 6.35447 12.4688 4.85229 12.4688C4.56907 12.468 4.28827 12.5208 4.02475 12.6246C2.36299 13.2926 1.8776 15.8902 2.93225 18.4241C3.8199 20.5586 5.52026 21.9688 7.02244 21.9688C7.30566 21.9695 7.58646 21.9167 7.84998 21.8129Z" stroke="#FF5940" stroke-width="1.58333" stroke-miterlimit="10"/>
</svg>
