<svg xmlns="http://www.w3.org/2000/svg" width="24" height="24" viewBox="0 0 24 24" fill="none">
  <path d="M12.8638 2.91424C12.77 2.8017 12.6525 2.71116 12.5198 2.64902C12.3871 2.58689 12.2423 2.55469 12.0958 2.55469C11.9493 2.55469 11.8045 2.58689 11.6718 2.64902C11.5391 2.71116 11.4217 2.8017 11.3278 2.91424C9.87381 4.66024 6.96781 6.76224 5.29381 7.69624C5.15833 7.77174 5.04226 7.87772 4.95478 8.0058C4.86731 8.13389 4.81083 8.28056 4.78981 8.43424L3.47381 17.9962H3.00781C2.7426 17.9962 2.48824 18.1016 2.30071 18.2891C2.11317 18.4767 2.00781 18.731 2.00781 18.9962C2.00781 19.2615 2.11317 19.5158 2.30071 19.7033C2.48824 19.8909 2.7426 19.9962 3.00781 19.9962H20.9938C21.259 19.9962 21.5134 19.8909 21.7009 19.7033C21.8885 19.5158 21.9938 19.2615 21.9938 18.9962C21.9938 18.731 21.8885 18.4767 21.7009 18.2891C21.5134 18.1016 21.259 17.9962 20.9938 17.9962H20.7198L19.4018 8.43424C19.381 8.28075 19.3248 8.13419 19.2377 8.00612C19.1506 7.87805 19.0349 7.77197 18.8998 7.69624C17.2258 6.76224 14.3198 4.65824 12.8638 2.91424ZM9.66581 17.9962C10.4798 16.7302 11.3018 15.1622 12.0698 12.9862C12.7778 14.9842 13.5578 16.5362 14.4818 17.9962H9.66581Z" fill="#FF5940"/>
</svg>