<svg width="33" height="32" viewBox="0 0 33 32" fill="none" xmlns="http://www.w3.org/2000/svg">
<path d="M12.8936 12.8225C12.8936 12.6645 12.9564 12.513 13.0681 12.4013C13.1798 12.2896 13.3314 12.2268 13.4894 12.2268H19.844C20.002 12.2268 20.1535 12.2896 20.2652 12.4013C20.377 12.513 20.4397 12.6645 20.4397 12.8225C20.4397 12.9805 20.377 13.1321 20.2652 13.2438C20.1535 13.3555 20.002 13.4183 19.844 13.4183H13.4894C13.3314 13.4183 13.1798 13.3555 13.0681 13.2438C12.9564 13.1321 12.8936 12.9805 12.8936 12.8225ZM13.4894 16.5956H19.844C20.002 16.5956 20.1535 16.5328 20.2652 16.4211C20.377 16.3094 20.4397 16.1578 20.4397 15.9998C20.4397 15.8418 20.377 15.6903 20.2652 15.5786C20.1535 15.4669 20.002 15.4041 19.844 15.4041H13.4894C13.3314 15.4041 13.1798 15.4669 13.0681 15.5786C12.9564 15.6903 12.8936 15.8418 12.8936 15.9998C12.8936 16.1578 12.9564 16.3094 13.0681 16.4211C13.1798 16.5328 13.3314 16.5956 13.4894 16.5956ZM16.6667 18.5814H13.4894C13.3314 18.5814 13.1798 18.6442 13.0681 18.7559C12.9564 18.8676 12.8936 19.0191 12.8936 19.1771C12.8936 19.3351 12.9564 19.4867 13.0681 19.5984C13.1798 19.7101 13.3314 19.7729 13.4894 19.7729H16.6667C16.8247 19.7729 16.9762 19.7101 17.0879 19.5984C17.1997 19.4867 17.2624 19.3351 17.2624 19.1771C17.2624 19.0191 17.1997 18.8676 17.0879 18.7559C16.9762 18.6442 16.8247 18.5814 16.6667 18.5814ZM26 8.05657V18.8485C26.0003 19.0311 25.9646 19.212 25.8947 19.3807C25.8248 19.5494 25.7223 19.7026 25.5929 19.8315L20.4983 24.9261C20.3694 25.0554 20.2162 25.158 20.0475 25.2278C19.8788 25.2977 19.6979 25.3335 19.5153 25.3332H8.72341C8.35474 25.3332 8.00117 25.1867 7.74049 24.926C7.4798 24.6653 7.33334 24.3118 7.33334 23.9431V8.05657C7.33334 7.68791 7.4798 7.33434 7.74049 7.07365C8.00117 6.81296 8.35474 6.6665 8.72341 6.6665H24.6099C24.9786 6.6665 25.3322 6.81296 25.5929 7.07365C25.8536 7.33434 26 7.68791 26 8.05657ZM8.72341 24.1417H19.2482V19.1771C19.2482 19.0191 19.311 18.8676 19.4227 18.7559C19.5344 18.6442 19.686 18.5814 19.844 18.5814H24.8085V8.05657C24.8085 8.00391 24.7876 7.9534 24.7504 7.91616C24.7131 7.87891 24.6626 7.85799 24.6099 7.85799H8.72341C8.67075 7.85799 8.62024 7.87891 8.583 7.91616C8.54575 7.9534 8.52483 8.00391 8.52483 8.05657V23.9431C8.52483 23.9958 8.54575 24.0463 8.583 24.0835C8.62024 24.1208 8.67075 24.1417 8.72341 24.1417ZM23.9665 19.7729H20.4397V23.2997L23.9665 19.7729Z" fill="#8A8A8A"/>
</svg>
