<svg width="14" height="12" viewBox="0 0 14 12" fill="none" xmlns="http://www.w3.org/2000/svg">
<path d="M7.57571 0.442825C7.51315 0.367798 7.43485 0.307438 7.34638 0.266017C7.2579 0.224595 7.1614 0.203125 7.06371 0.203125C6.96602 0.203125 6.86952 0.224595 6.78105 0.266017C6.69257 0.307438 6.61428 0.367798 6.55171 0.442825C5.58238 1.60683 3.64505 3.00816 2.52905 3.63083C2.43872 3.68116 2.36134 3.75181 2.30303 3.8372C2.24471 3.92259 2.20706 4.02038 2.19305 4.12283L1.31571 10.4975H1.00505C0.828235 10.4975 0.658665 10.5677 0.533641 10.6928C0.408617 10.8178 0.338379 10.9873 0.338379 11.1642C0.338379 11.341 0.408617 11.5105 0.533641 11.6356C0.658665 11.7606 0.828235 11.8308 1.00505 11.8308H12.9957C13.1725 11.8308 13.3421 11.7606 13.4671 11.6356C13.5921 11.5105 13.6624 11.341 13.6624 11.1642C13.6624 10.9873 13.5921 10.8178 13.4671 10.6928C13.3421 10.5677 13.1725 10.4975 12.9957 10.4975H12.813L11.9344 4.12283C11.9205 4.0205 11.8831 3.9228 11.825 3.83742C11.7669 3.75204 11.6898 3.68131 11.5997 3.63083C10.4837 3.00816 8.54638 1.60549 7.57571 0.442825ZM5.44371 10.4975C5.98638 9.65349 6.53438 8.60816 7.04638 7.15749C7.51838 8.48949 8.03838 9.52416 8.65438 10.4975H5.44371Z" fill="#B0B0B0"/>
</svg>
