<svg width="38" height="38" viewBox="0 0 38 38" fill="none" xmlns="http://www.w3.org/2000/svg">
<path d="M18.9998 33.2498L7.09704 21.5399C6.3044 20.751 5.68527 19.7922 5.28234 18.7295C4.87941 17.6669 4.70228 16.5257 4.76317 15.3847C4.82406 14.2437 5.12152 13.1301 5.63503 12.1206C6.14853 11.1112 6.86587 10.23 7.73754 9.53771C8.60921 8.84546 9.61448 8.35869 10.684 8.11098C11.7535 7.86326 12.8618 7.8605 13.9325 8.10287C15.0031 8.34525 16.0106 8.82699 16.8854 9.51488C17.7603 10.2028 18.4816 11.0804 18.9998 12.0873C19.5135 11.0868 20.2278 10.2134 21.0941 9.52674C21.9604 8.84004 22.9584 8.35609 24.0202 8.10783C25.0819 7.85957 26.1825 7.85283 27.247 8.08808C28.3114 8.32332 29.3148 8.79502 30.1888 9.47106C31.0628 10.1471 31.7869 11.0116 32.3118 12.0058C32.8367 13 33.1501 14.1004 33.2307 15.2323C33.3112 16.3641 33.1571 17.5008 32.7786 18.5649C32.4002 19.629 31.8065 20.5956 31.0378 21.3988L18.9998 33.2498Z" stroke="#FF5940" stroke-width="1.58333" stroke-linecap="round" stroke-linejoin="round"/>
</svg>
