<svg width="33" height="32" viewBox="0 0 33 32" fill="none" xmlns="http://www.w3.org/2000/svg">
<path d="M17.3708 5.7679C17.2581 5.63025 17.1171 5.51951 16.9577 5.44351C16.7983 5.36752 16.6245 5.32812 16.4486 5.32812C16.2726 5.32812 16.0988 5.36752 15.9394 5.44351C15.78 5.51951 15.639 5.63025 15.5263 5.7679C13.7803 7.90349 10.2906 10.4745 8.28044 11.6169C8.11774 11.7093 7.97836 11.8389 7.87332 11.9956C7.76828 12.1522 7.70045 12.3316 7.67521 12.5196L6.09491 24.2152H5.53531C5.21683 24.2152 4.91139 24.3441 4.68619 24.5734C4.46099 24.8028 4.33447 25.1139 4.33447 25.4383C4.33447 25.7627 4.46099 26.0738 4.68619 26.3032C4.91139 26.5326 5.21683 26.6615 5.53531 26.6615H27.1336C27.4521 26.6615 27.7576 26.5326 27.9828 26.3032C28.208 26.0738 28.3345 25.7627 28.3345 25.4383C28.3345 25.1139 28.208 24.8028 27.9828 24.5734C27.7576 24.3441 27.4521 24.2152 27.1336 24.2152H26.8046L25.2219 12.5196C25.1969 12.3319 25.1295 12.1526 25.0248 11.996C24.9202 11.8393 24.7813 11.7096 24.6191 11.6169C22.6089 10.4745 19.1192 7.90105 17.3708 5.7679ZM13.5305 24.2152C14.508 22.6667 15.4951 20.7488 16.4173 18.0873C17.2675 20.5311 18.2042 22.4294 19.3138 24.2152H13.5305Z" fill="#FF5940"/>
</svg>
