<svg width="18" height="22" viewBox="0 0 18 22" fill="none" xmlns="http://www.w3.org/2000/svg">
<path d="M2.87516 18.1455V8.95801C2.87516 7.33356 3.52047 5.77564 4.66913 4.62698C5.81779 3.47832 7.37571 2.83301 9.00016 2.83301C10.6246 2.83301 12.1825 3.47832 13.3312 4.62698C14.4799 5.77564 15.1252 7.33356 15.1252 8.95801V18.1455M2.87516 18.1455H15.1252M2.87516 18.1455H0.833496M15.1252 18.1455H17.1668M6.81266 21.208H11.1877" stroke="#5C5C5C" stroke-width="1.16667" stroke-linecap="round" stroke-linejoin="round"/>
<path d="M9.00033 2.83268C9.56412 2.83268 10.0212 2.37564 10.0212 1.81185C10.0212 1.24806 9.56412 0.791016 9.00033 0.791016C8.43653 0.791016 7.97949 1.24806 7.97949 1.81185C7.97949 2.37564 8.43653 2.83268 9.00033 2.83268Z" stroke="#5C5C5C" stroke-width="1.16667"/>
</svg>
