<svg width="16" height="17" viewBox="0 0 16 17" fill="none" xmlns="http://www.w3.org/2000/svg">
<path d="M2.66667 6.36624C2.66667 5.36038 2.66667 4.85798 2.9792 4.54544C3.29173 4.23291 3.79413 4.23291 4.8 4.23291H11.2C12.2059 4.23291 12.7083 4.23291 13.0208 4.54544C13.3333 4.85798 13.3333 5.36038 13.3333 6.36624C13.3333 6.61744 13.3333 6.74331 13.2555 6.82171C13.1771 6.89958 13.0507 6.89958 12.8 6.89958H3.2C2.9488 6.89958 2.82293 6.89958 2.74453 6.82171C2.66667 6.74331 2.66667 6.61691 2.66667 6.36624ZM2.66667 11.1662C2.66667 12.1721 2.66667 12.6745 2.9792 12.987C3.29173 13.2996 3.79413 13.2996 4.8 13.2996H11.2C12.2059 13.2996 12.7083 13.2996 13.0208 12.987C13.3333 12.6745 13.3333 12.1721 13.3333 11.1662V8.49958C13.3333 8.24838 13.3333 8.12251 13.2555 8.04411C13.1771 7.96624 13.0507 7.96624 12.8 7.96624H3.2C2.9488 7.96624 2.82293 7.96624 2.74453 8.04411C2.66667 8.12251 2.66667 8.24891 2.66667 8.49958V11.1662Z" fill="#FF5940"/>
<path d="M5.33334 3.1665V4.7665M10.6667 3.1665V4.7665" stroke="#FF5940" stroke-width="1.33333" stroke-linecap="round"/>
</svg>
