<svg width="32" height="32" viewBox="0 0 32 32" fill="none" xmlns="http://www.w3.org/2000/svg">
<path d="M12.2269 12.8225C12.2269 12.6645 12.2897 12.513 12.4014 12.4013C12.5132 12.2896 12.6647 12.2268 12.8227 12.2268H19.1773C19.3353 12.2268 19.4868 12.2896 19.5985 12.4013C19.7103 12.513 19.773 12.6645 19.773 12.8225C19.773 12.9805 19.7103 13.1321 19.5985 13.2438C19.4868 13.3555 19.3353 13.4183 19.1773 13.4183H12.8227C12.6647 13.4183 12.5132 13.3555 12.4014 13.2438C12.2897 13.1321 12.2269 12.9805 12.2269 12.8225ZM12.8227 16.5956H19.1773C19.3353 16.5956 19.4868 16.5328 19.5985 16.4211C19.7103 16.3094 19.773 16.1578 19.773 15.9998C19.773 15.8418 19.7103 15.6903 19.5985 15.5786C19.4868 15.4669 19.3353 15.4041 19.1773 15.4041H12.8227C12.6647 15.4041 12.5132 15.4669 12.4014 15.5786C12.2897 15.6903 12.2269 15.8418 12.2269 15.9998C12.2269 16.1578 12.2897 16.3094 12.4014 16.4211C12.5132 16.5328 12.6647 16.5956 12.8227 16.5956ZM16 18.5814H12.8227C12.6647 18.5814 12.5132 18.6442 12.4014 18.7559C12.2897 18.8676 12.2269 19.0191 12.2269 19.1771C12.2269 19.3351 12.2897 19.4867 12.4014 19.5984C12.5132 19.7101 12.6647 19.7729 12.8227 19.7729H16C16.158 19.7729 16.3095 19.7101 16.4212 19.5984C16.533 19.4867 16.5957 19.3351 16.5957 19.1771C16.5957 19.0191 16.533 18.8676 16.4212 18.7559C16.3095 18.6442 16.158 18.5814 16 18.5814ZM25.3333 8.05657V18.8485C25.3337 19.0311 25.2979 19.212 25.228 19.3807C25.1581 19.5494 25.0556 19.7026 24.9262 19.8315L19.8316 24.9261C19.7027 25.0554 19.5495 25.158 19.3808 25.2278C19.2121 25.2977 19.0312 25.3335 18.8486 25.3332H8.05673C7.68806 25.3332 7.33449 25.1867 7.0738 24.926C6.81311 24.6653 6.66666 24.3118 6.66666 23.9431V8.05657C6.66666 7.68791 6.81311 7.33434 7.0738 7.07365C7.33449 6.81296 7.68806 6.6665 8.05673 6.6665H23.9433C24.3119 6.6665 24.6655 6.81296 24.9262 7.07365C25.1869 7.33434 25.3333 7.68791 25.3333 8.05657ZM8.05673 24.1417H18.5815V19.1771C18.5815 19.0191 18.6443 18.8676 18.756 18.7559C18.8678 18.6442 19.0193 18.5814 19.1773 18.5814H24.1418V8.05657C24.1418 8.00391 24.1209 7.9534 24.0837 7.91616C24.0464 7.87891 23.9959 7.85799 23.9433 7.85799H8.05673C8.00406 7.85799 7.95355 7.87891 7.91631 7.91616C7.87907 7.9534 7.85815 8.00391 7.85815 8.05657V23.9431C7.85815 23.9958 7.87907 24.0463 7.91631 24.0835C7.95355 24.1208 8.00406 24.1417 8.05673 24.1417ZM23.2998 19.7729H19.773V23.2997L23.2998 19.7729Z" fill="#8A8A8A"/>
</svg>
