<svg width="18" height="18" viewBox="0 0 18 18" fill="none" xmlns="http://www.w3.org/2000/svg">
<path d="M11.7819 9L6.32569 3.76682C6.28077 3.72465 6.24525 3.67458 6.2212 3.61951C6.19715 3.56444 6.18503 3.50547 6.18556 3.446C6.18609 3.38654 6.19925 3.32776 6.22428 3.27308C6.24931 3.21839 6.28571 3.16888 6.33138 3.12741C6.37705 3.08594 6.43107 3.05333 6.49033 3.03148C6.54959 3.00962 6.6129 2.99895 6.67661 3.00008C6.74031 3.00121 6.80315 3.01413 6.86147 3.03807C6.9198 3.06201 6.97245 3.09652 7.01639 3.13958L12.7991 8.68638C12.8866 8.77034 12.9355 8.88286 12.9355 9C12.9355 9.11714 12.8866 9.22966 12.7991 9.31362L7.01639 14.8604C6.97245 14.9035 6.9198 14.938 6.86147 14.9619C6.80315 14.9859 6.74031 14.9988 6.67661 14.9999C6.6129 15.0011 6.54959 14.9904 6.49033 14.9685C6.43107 14.9467 6.37705 14.9141 6.33138 14.8726C6.28571 14.8311 6.24931 14.7816 6.22428 14.7269C6.19925 14.6722 6.18609 14.6135 6.18556 14.554C6.18503 14.4945 6.19715 14.4356 6.2212 14.3805C6.24525 14.3254 6.28077 14.2754 6.32569 14.2332L11.7819 9Z" fill="#474747"/>
</svg>
